<svg width="216" height="45" viewBox="0 0 216 45" fill="none" xmlns="http://www.w3.org/2000/svg">
    <path d="M62.9525 29.7365C62.9525 29.9479 63.1461 30.1382 63.3612 30.1382H65.3619C65.577 30.1382 65.7706 29.9479 65.7706 29.7365V15.5155C65.7706 15.3041 65.577 15.1138 65.3619 15.1138H63.3612C63.1461 15.1138 62.9525 15.3041 62.9525 15.5155V29.7365Z" fill="black"/>
    <path d="M69.107 29.7238C69.107 29.9352 69.3006 30.1255 69.5157 30.1255H71.4733C71.71 30.1255 71.882 29.9352 71.882 29.7238V20.6321H71.9036L80.8956 30.1129H81.4119C81.627 30.1129 81.8206 29.9437 81.8206 29.7323V15.5028C81.8206 15.2914 81.627 15.1011 81.4119 15.1011H79.4328C79.1961 15.1011 79.0241 15.2914 79.0241 15.5028V24.4591H79.0025L70.0535 15.1137H69.5157C69.3006 15.1137 69.107 15.2828 69.107 15.4943V29.7238Z" fill="black"/>
    <path d="M85.0629 29.7168C85.0629 29.9312 85.235 30.1242 85.4717 30.1242H87.4509C87.6661 30.1242 87.8597 29.9312 87.8597 29.7168V24.2916H93.1736C93.3887 24.2916 93.5823 24.0986 93.5823 23.8841V22.1258C93.5823 21.9113 93.3887 21.7184 93.1736 21.7184H87.8597V17.687H94.2277C94.4644 17.687 94.6365 17.494 94.6365 17.2796V15.5212C94.6365 15.3068 94.4644 15.1138 94.2277 15.1138H85.4717C85.235 15.1138 85.0629 15.3068 85.0629 15.5212V29.7168Z" fill="black"/>
    <path d="M96.0042 22.6398C96.0042 26.8094 99.4319 30.1242 103.743 30.1242C108.055 30.1242 111.504 26.8094 111.504 22.6398C111.504 18.4703 108.055 15.1138 103.743 15.1138C99.4319 15.1138 96.0042 18.4703 96.0042 22.6398ZM98.8067 22.6398C98.8067 20.013 101.027 17.824 103.743 17.824C106.46 17.824 108.702 20.013 108.702 22.6398C108.702 25.2666 106.46 27.414 103.743 27.414C101.027 27.414 98.8067 25.2666 98.8067 22.6398Z" fill="black"/>
    <path d="M113.536 28.4981C113.962 28.8942 115.54 30.1242 118.226 30.1242C121.232 30.1242 123.129 28.1436 123.129 25.9963C123.129 23.307 120.742 22.0978 118.674 21.2847C116.947 20.5967 116.158 19.9296 116.158 18.9498C116.158 18.2826 116.819 17.4904 118.034 17.4904C119.207 17.4904 120.827 18.5328 120.997 18.637C121.253 18.8038 121.573 18.637 121.744 18.3869L122.554 17.1985C122.703 16.9901 122.639 16.6357 122.426 16.5106C121.999 16.1979 120.337 15.1138 118.162 15.1138C114.772 15.1138 113.365 17.2611 113.365 19.1165C113.365 21.5766 115.369 22.8275 117.373 23.6197C119.164 24.3285 120.081 25.0582 120.081 26.1214C120.081 27.0179 119.249 27.7267 118.141 27.7267C116.755 27.7267 115.028 26.4967 114.921 26.4341C114.73 26.2882 114.367 26.2882 114.197 26.5801L113.429 27.8726C113.237 28.2062 113.344 28.3104 113.536 28.4981Z" fill="black"/>
    <path d="M125.865 29.6307C125.865 29.9056 126.08 30.1382 126.381 30.1382H128.274C128.554 30.1382 128.79 29.9056 128.79 29.6307V22.958L132.817 27.5478C133.159 27.8838 133.346 27.7358 133.46 27.6238L134.64 26.5396C134.982 26.3156 134.982 25.9795 134.754 25.7555L131.501 22.0911L137.115 15.8749C137.395 15.5578 137.18 15.1138 136.771 15.1138H134.62C134.426 15.1138 134.297 15.2195 134.211 15.3252L128.79 21.3299V15.6212C128.79 15.3463 128.554 15.1138 128.274 15.1138H126.381C126.08 15.1138 125.865 15.3463 125.865 15.6212V29.6307Z" fill="black"/>
    <path d="M134.367 28.5821C134.733 29.0261 135.766 30.1256 137.637 30.1256C140.154 30.1256 142.155 28.4341 142.155 25.4952V15.5155C142.155 15.3041 141.983 15.1138 141.746 15.1138H139.724C139.487 15.1138 139.315 15.3041 139.315 15.5155V25.4952C139.315 26.9541 138.433 27.6307 137.594 27.6307C136.884 27.6307 136.454 27.2501 136.174 26.9541C135.981 26.7638 135.766 26.7215 135.529 26.9329L134.41 28.0535C134.281 28.2015 134.26 28.413 134.367 28.5821Z" fill="black"/>
    <path d="M158.005 29.7168C158.005 29.9312 158.175 30.1242 158.41 30.1242H160.375C160.589 30.1242 160.781 29.9312 160.781 29.7168V24.2487H163.151L165.992 29.9312C166.034 30.017 166.141 30.1242 166.333 30.1242H168.576C168.939 30.1242 169.088 29.7811 168.939 29.5023L166.013 24.0557C167.871 23.3052 169.174 21.6969 169.174 19.7241C169.174 17.1723 167.081 15.1138 164.518 15.1138H158.41C158.175 15.1138 158.005 15.3068 158.005 15.5212V29.7168ZM160.802 21.9542V17.687H164.283C165.415 17.687 166.397 18.6305 166.397 19.767C166.397 20.9678 165.415 21.9542 164.283 21.9542H160.802Z" fill="black"/>
    <path d="M190.144 29.7168C190.144 29.9312 190.316 30.1242 190.553 30.1242H199.309C199.546 30.1242 199.718 29.9312 199.718 29.7168V27.9584C199.718 27.744 199.546 27.551 199.309 27.551H192.941V23.7984H198.255C198.47 23.7984 198.664 23.6268 198.664 23.3909V21.6111C198.664 21.3967 198.47 21.2037 198.255 21.2037H192.941V17.687H199.309C199.546 17.687 199.718 17.494 199.718 17.2796V15.5212C199.718 15.3068 199.546 15.1138 199.309 15.1138H190.553C190.316 15.1138 190.144 15.3068 190.144 15.5212V29.7168Z" fill="black"/>
    <path d="M202.453 29.7238C202.453 29.9352 202.647 30.1255 202.862 30.1255H204.82C205.056 30.1255 205.228 29.9352 205.228 29.7238V20.6321H205.25L214.242 30.1129H214.758C214.973 30.1129 215.167 29.9437 215.167 29.7323V15.5028C215.167 15.2914 214.973 15.1011 214.758 15.1011H212.779C212.542 15.1011 212.37 15.2914 212.37 15.5028V24.4591H212.349L203.4 15.1137H202.862C202.647 15.1137 202.453 15.2828 202.453 15.4943V29.7238Z" fill="black"/>
    <path d="M171.004 29.6393C170.961 29.9353 171.133 30.1256 171.413 30.1256H173.349C173.542 30.1256 173.714 29.9564 173.736 29.8084L174.984 21.7951C175.005 21.7951 175.048 21.7951 175.048 21.7951L178.856 29.8804C178.92 30.0073 179.028 30.113 179.221 30.113H179.609C179.802 30.113 179.931 30.0073 179.974 29.8804L183.739 21.7951C183.739 21.7951 183.782 21.7951 183.803 21.7951L185.073 29.8084C185.116 29.9564 185.288 30.1256 185.481 30.1256H187.439C187.719 30.1256 187.891 29.9353 187.826 29.6393L185.288 15.4309C185.266 15.2618 185.137 15.1138 184.901 15.1138H184.556C184.363 15.1138 184.255 15.1983 184.191 15.3252L179.458 25.3049C179.437 25.3049 179.437 25.3049 179.393 25.3049L174.661 15.3252C174.596 15.1983 174.467 15.1138 174.295 15.1138H173.951C173.714 15.1138 173.585 15.2618 173.564 15.4309L171.004 29.6393Z" fill="black"/>
    <path d="M145.012 29.7168C145.012 29.9312 145.184 30.1242 145.421 30.1242H154.177C154.413 30.1242 154.585 29.9312 154.585 29.7168V27.9584C154.585 27.744 154.413 27.551 154.177 27.551H147.809V23.7984H153.122C153.338 23.7984 153.531 23.6268 153.531 23.3909V21.6111C153.531 21.3967 153.338 21.2037 153.122 21.2037H147.809V17.687H154.177C154.413 17.687 154.585 17.494 154.585 17.2796V15.5212C154.585 15.3068 154.413 15.1138 154.177 15.1138H145.421C145.184 15.1138 145.012 15.3068 145.012 15.5212V29.7168Z" fill="black"/>
    <path fill-rule="evenodd" clip-rule="evenodd" d="M49.6326 12.4026C49.6326 10.488 48.0918 8.93359 46.194 8.93359H3.43865C1.54081 8.93359 0 10.488 0 12.4026V32.928C0 34.8425 1.54081 36.397 3.43865 36.397H46.194C48.0918 36.397 49.6326 34.8425 49.6326 32.928V12.4026Z" fill="#0081BE"/>
    <path fill-rule="evenodd" clip-rule="evenodd" d="M8.27206 6.03838C8.27206 6.35802 8.47941 6.61743 8.73492 6.61743L40.8976 6.61743C41.1531 6.61743 41.3605 6.35802 41.3605 6.03838V4.88029C41.3605 4.56066 41.1531 4.30124 40.8976 4.30124L8.73492 4.30124C8.47941 4.30124 8.27206 4.56066 8.27206 4.88029V6.03838Z" fill="#0081BE" fill-opacity="0.56"/>
    <path fill-rule="evenodd" clip-rule="evenodd" d="M8.27206 40.1197C8.27206 40.4393 8.47941 40.6987 8.73492 40.6987L40.8976 40.6987C41.1531 40.6987 41.3605 40.4393 41.3605 40.1197V38.9616C41.3605 38.642 41.1531 38.3825 40.8976 38.3825L8.73492 38.3825C8.47941 38.3825 8.27206 38.642 8.27206 38.9616V40.1197Z" fill="#0081BE" fill-opacity="0.56"/>
    <path fill-rule="evenodd" clip-rule="evenodd" d="M14.228 1.73711C14.228 2.05675 14.4364 2.31616 14.693 2.31616L34.2779 2.31616C34.5345 2.31616 34.7429 2.05675 34.7429 1.73711V0.579021C34.7429 0.259387 34.5345 -2.67029e-05 34.2779 -2.67029e-05L14.693 -2.67029e-05C14.4364 -2.67029e-05 14.228 0.259387 14.228 0.579021V1.73711Z" fill="#0081BE" fill-opacity="0.2"/>
    <path fill-rule="evenodd" clip-rule="evenodd" d="M14.228 44.421C14.228 44.7406 14.4364 45 14.693 45L34.2779 45C34.5345 45 34.7429 44.7406 34.7429 44.421V43.2629C34.7429 42.9432 34.5345 42.6838 34.2779 42.6838L14.693 42.6838C14.4364 42.6838 14.228 42.9432 14.228 43.2629V44.421Z" fill="#0081BE" fill-opacity="0.2"/>
    <path d="M32.2909 25.9201C34.8364 22.4306 33.9682 17.5739 30.3376 17.3036C23.9917 16.8303 21.6603 21.4731 21.0683 21.1476C20.1189 20.625 24.6952 15.7134 30.3324 16.4749C31.1161 16.5811 30.4135 14.228 24.4959 14.228C19.1906 14.228 14.8898 17.4081 14.8898 21.3302C14.8898 23.0862 15.7537 24.6925 17.1819 25.9317C21.4949 29.2279 26.6776 23.9172 27.1147 24.1975C27.5514 24.477 24.8855 26.8602 22.5279 27.5441C20.2182 28.2143 28.0566 29.1624 29.8715 23.1517C30.521 20.9993 28.3398 20.7871 25.2399 22.8617C21.7885 25.1712 19.607 24.2967 18.8291 23.8133C17.7417 23.1379 17.1048 21.9463 17.3271 20.6564C17.8682 17.5217 21.7658 15.9603 22.056 16.4121C22.3461 16.8645 18.7516 17.5031 18.205 20.7583C18.0475 21.6971 18.5045 22.5617 19.291 23.0506C20.6107 23.87 22.6525 23.5204 24.7526 22.1153C27.2469 20.4464 29.1297 19.918 30.1975 20.5867C30.8106 20.9713 31.0856 21.7046 30.9716 22.6524C30.7686 24.3392 29.4019 26.4927 27.29 28.096C27.2865 28.0976 27.2845 28.1 27.2815 28.1023C25.891 29.1056 31.3103 31.391 32.8458 31.073C34.8919 30.6491 28.976 30.4653 32.2909 25.9201Z" fill="white"/>
</svg>