<svg width="714" height="103" viewBox="0 0 714 103" fill="none" xmlns="http://www.w3.org/2000/svg">
<path d="M16.0768 82.5954C16.0768 83.558 16.9425 84.4244 17.9044 84.4244H26.8498C27.8117 84.4244 28.6774 83.558 28.6774 82.5954V17.849C28.6774 16.8864 27.8117 16.02 26.8498 16.02H17.9044C16.9425 16.02 16.0768 16.8864 16.0768 17.849V82.5954Z" fill="#061D33"/>
<path d="M43.5955 82.5381C43.5955 83.5007 44.4611 84.3671 45.423 84.3671H54.1761C55.2342 84.3671 56.0037 83.5007 56.0037 82.5381V41.1448H56.0999L96.3064 84.3097H98.6149C99.5768 84.3097 100.442 83.5396 100.442 82.577V17.7917C100.442 16.8291 99.5768 15.9627 98.6149 15.9627H89.7656C88.7076 15.9627 87.9381 16.8291 87.9381 17.7917V58.5685H87.8419L47.8277 16.0201H45.423C44.4611 16.0201 43.5955 16.7902 43.5955 17.7528V82.5381Z" fill="#061D33"/>
<path d="M114.94 82.5057C114.94 83.482 115.71 84.3606 116.768 84.3606H125.618C126.58 84.3606 127.446 83.482 127.446 82.5057V57.8054H151.206C152.168 57.8054 153.033 56.9268 153.033 55.9505V47.9448C153.033 46.9686 152.168 46.0899 151.206 46.0899H127.446V27.7355H155.919C156.977 27.7355 157.747 26.8569 157.747 25.8806V17.875C157.747 16.8987 156.977 16.02 155.919 16.02H116.768C115.71 16.02 114.94 16.8987 114.94 17.875V82.5057Z" fill="#061D33"/>
<path d="M163.862 50.2852C163.862 69.2687 179.189 84.3606 198.467 84.3606C217.746 84.3606 233.168 69.2687 233.168 50.2852C233.168 31.3017 217.746 16.02 198.467 16.02C179.189 16.02 163.862 31.3017 163.862 50.2852ZM176.393 50.2852C176.393 38.3256 186.322 28.3593 198.467 28.3593C210.613 28.3593 220.637 38.3256 220.637 50.2852C220.637 62.2449 210.613 72.0214 198.467 72.0214C186.322 72.0214 176.393 62.2449 176.393 50.2852Z" fill="#061D33"/>
<path d="M242.251 76.9571C244.158 78.7605 251.212 84.3606 263.223 84.3606C276.664 84.3606 285.148 75.3435 285.148 65.567C285.148 53.3226 274.471 47.8174 265.225 44.1156C257.503 40.9833 253.976 37.946 253.976 33.4848C253.976 30.4475 256.931 26.8406 262.365 26.8406C267.608 26.8406 274.853 31.5865 275.615 32.0611C276.759 32.8204 278.189 32.0611 278.952 30.9221L282.574 25.5118C283.241 24.5626 282.956 22.949 282.002 22.3795C280.096 20.9557 272.66 16.02 262.937 16.02C247.78 16.02 241.489 25.7965 241.489 34.2442C241.489 45.4444 250.449 51.1395 259.41 54.7464C267.417 57.9736 271.516 61.2957 271.516 66.1365C271.516 70.2179 267.799 73.4451 262.842 73.4451C256.645 73.4451 248.924 67.845 248.447 67.5602C247.589 66.8958 245.969 66.8958 245.206 68.2247L241.775 74.1095C240.917 75.6282 241.393 76.1028 242.251 76.9571Z" fill="#061D33"/>
<path d="M297.379 82.1141C297.379 83.3655 298.341 84.4244 299.687 84.4244H308.152C309.402 84.4244 310.46 83.3655 310.46 82.1141V51.7337L328.465 72.6305C329.993 74.1605 330.829 73.4867 331.338 72.9767L336.618 68.0405C338.147 67.0205 338.147 65.4905 337.128 64.4705L322.58 47.7869L347.685 19.4855C348.935 18.0415 347.973 16.02 346.146 16.02H336.527C335.661 16.02 335.084 16.5013 334.7 16.9826L310.46 44.3214V18.3303C310.46 17.0789 309.402 16.02 308.152 16.02H299.687C298.341 16.02 297.379 17.0789 297.379 18.3303V82.1141Z" fill="#061D33"/>
<path d="M335.397 77.3398C337.032 79.3613 341.65 84.367 350.018 84.367C361.272 84.367 370.217 76.6659 370.217 63.2853V17.849C370.217 16.8864 369.448 16.02 368.39 16.02H359.348C358.29 16.02 357.521 16.8864 357.521 17.849V63.2853C357.521 69.9275 353.577 73.0079 349.825 73.0079C346.651 73.0079 344.728 71.2752 343.477 69.9275C342.611 69.0611 341.65 68.8686 340.591 69.8312L335.59 74.9332C335.013 75.607 334.916 76.5697 335.397 77.3398Z" fill="#061D33"/>
<path d="M441.087 82.5057C441.087 83.482 441.851 84.3606 442.901 84.3606H451.687C452.641 84.3606 453.501 83.482 453.501 82.5057V57.6102H464.1L476.8 83.482C476.991 83.8725 477.469 84.3606 478.328 84.3606H488.355C489.978 84.3606 490.646 82.7986 489.978 81.5294L476.896 56.7315C485.204 53.3145 491.028 45.9923 491.028 37.0103C491.028 25.3924 481.67 16.02 470.212 16.02H442.901C441.851 16.02 441.087 16.8987 441.087 17.875V82.5057ZM453.596 47.1638V27.7355H469.161C474.222 27.7355 478.615 32.0312 478.615 37.2056C478.615 42.6729 474.222 47.1638 469.161 47.1638H453.596Z" fill="#061D33"/>
<path d="M584.796 82.5057C584.796 83.482 585.565 84.3606 586.623 84.3606H625.775C626.833 84.3606 627.602 83.482 627.602 82.5057V74.5001C627.602 73.5238 626.833 72.6451 625.775 72.6451H597.301V55.5599H621.061C622.023 55.5599 622.889 54.7789 622.889 53.705V45.6017C622.889 44.6254 622.023 43.7468 621.061 43.7468H597.301V27.7355H625.775C626.833 27.7355 627.602 26.8569 627.602 25.8806V17.875C627.602 16.8987 626.833 16.02 625.775 16.02H586.623C585.565 16.02 584.796 16.8987 584.796 17.875V82.5057Z" fill="#061D33"/>
<path d="M639.833 82.5381C639.833 83.5007 640.698 84.3671 641.66 84.3671H650.413C651.472 84.3671 652.241 83.5007 652.241 82.5381V41.1448H652.337L692.544 84.3097H694.852C695.814 84.3097 696.68 83.5396 696.68 82.577V17.7917C696.68 16.8291 695.814 15.9627 694.852 15.9627H686.003C684.945 15.9627 684.175 16.8291 684.175 17.7917V58.5685H684.079L644.065 16.0201H641.66C640.698 16.0201 639.833 16.7902 639.833 17.7528V82.5381Z" fill="#061D33"/>
<path d="M499.211 82.153C499.019 83.5006 499.789 84.367 501.039 84.367H509.696C510.562 84.367 511.331 83.5969 511.427 82.9231L517.006 46.4392C517.102 46.4392 517.295 46.4392 517.295 46.4392L534.32 83.2507C534.609 83.8283 535.09 84.3096 535.955 84.3096H537.687C538.552 84.3096 539.129 83.8283 539.322 83.2507L556.155 46.4392C556.155 46.4392 556.347 46.4392 556.443 46.4392L562.118 82.9231C562.311 83.5969 563.08 84.367 563.946 84.367H572.699C573.949 84.367 574.719 83.5006 574.43 82.153L563.08 17.464C562.984 16.6939 562.407 16.02 561.349 16.02H559.81C558.944 16.02 558.463 16.4051 558.175 16.9826L537.013 62.419C536.917 62.419 536.917 62.419 536.725 62.419L515.563 16.9826C515.275 16.4051 514.698 16.02 513.928 16.02H512.389C511.331 16.02 510.754 16.6939 510.658 17.464L499.211 82.153Z" fill="#061D33"/>
<path d="M382.992 82.5057C382.992 83.482 383.762 84.3606 384.82 84.3606H423.971C425.029 84.3606 425.799 83.482 425.799 82.5057V74.5001C425.799 73.5238 425.029 72.6451 423.971 72.6451H395.498V55.5599H419.258C420.22 55.5599 421.085 54.7789 421.085 53.705V45.6017C421.085 44.6254 420.22 43.7468 419.258 43.7468H395.498V27.7355H423.971C425.029 27.7355 425.799 26.8569 425.799 25.8806V17.875C425.799 16.8987 425.029 16.02 423.971 16.02H384.82C383.762 16.02 382.992 16.8987 382.992 17.875V82.5057Z" fill="#061D33"/>
</svg>
