<svg width="800" height="326" viewBox="0 0 800 326" fill="none" xmlns="http://www.w3.org/2000/svg">
<mask id="mask0_10_77" style="mask-type:alpha" maskUnits="userSpaceOnUse" x="0" y="0" width="800" height="326">
<rect width="800" height="326" rx="17" fill="#EECF5F"/>
</mask>
<g mask="url(#mask0_10_77)">
<rect x="-99" y="-10" width="1045" height="435" fill="#BAD3DD"/>
<path d="M70.0001 47C74.9706 47 79 42.7467 79 37.5C79 32.2533 74.9706 28 70.0001 28C65.0295 28 61 32.2533 61 37.5C61 42.7467 65.0295 47 70.0001 47Z" fill="#EECF5F" stroke="#19526C" stroke-width="3.90887" stroke-miterlimit="1.5" stroke-linecap="round" stroke-linejoin="round"/>
<path d="M51.4902 19.8816L59.6211 25.4981" stroke="#19526C" stroke-width="3.91636" stroke-miterlimit="1.5" stroke-linecap="round" stroke-linejoin="round"/>
<path d="M84 49L89 53" stroke="#19526C" stroke-width="3.91636" stroke-miterlimit="1.5" stroke-linecap="round" stroke-linejoin="round"/>
<path d="M44 37H51" stroke="#19526C" stroke-width="3.91636" stroke-miterlimit="1.5" stroke-linecap="round" stroke-linejoin="round"/>
<path d="M49 53L56 49" stroke="#19526C" stroke-width="3.7255" stroke-miterlimit="1.5" stroke-linecap="round" stroke-linejoin="round"/>
<path d="M71.1171 60.4706L70.2323 53.426" stroke="#19526C" stroke-width="3.7255" stroke-miterlimit="1.5" stroke-linecap="round" stroke-linejoin="round"/>
<path d="M90.834 19.9763L82.5306 25.4049" stroke="#19526C" stroke-width="3.91636" stroke-miterlimit="1.5" stroke-linecap="round" stroke-linejoin="round"/>
<path d="M94 36H87" stroke="#19526C" stroke-width="3.91636" stroke-miterlimit="1.5" stroke-linecap="round" stroke-linejoin="round"/>
<path d="M71.9742 13L71.1438 20.0494" stroke="#19526C" stroke-width="3.7255" stroke-miterlimit="1.5" stroke-linecap="round" stroke-linejoin="round"/>
<circle cx="6" cy="359" r="183.5" stroke="#19526C" stroke-width="5"/>
<circle cx="171.5" cy="285.5" r="73" fill="#C9DDBA" stroke="#19526C" stroke-width="5"/>
<circle cx="797.5" cy="277.5" r="39" fill="#EECF5F" stroke="#19526C" stroke-width="5"/>
<circle cx="743.5" cy="347.5" r="73" fill="#76B3CB" stroke="#19526C" stroke-width="5"/>
<circle cx="113" cy="222" r="43.5" fill="#EECF5F" stroke="#19526C" stroke-width="5"/>
<circle cx="477" cy="-131" r="183.5" fill="#76B3CB" stroke="#19526C" stroke-width="5"/>
<path d="M219.139 181.896C219.139 182.407 219.593 182.867 220.098 182.867H224.792C225.297 182.867 225.751 182.407 225.751 181.896V147.513C225.751 147.002 225.297 146.542 224.792 146.542H220.098C219.593 146.542 219.139 147.002 219.139 147.513V181.896Z" fill="#19526C"/>
<path d="M233.579 181.865C233.579 182.377 234.033 182.837 234.538 182.837H239.131C239.686 182.837 240.09 182.377 240.09 181.865V159.884H240.141L261.238 182.806H262.45C262.954 182.806 263.409 182.397 263.409 181.886V147.483C263.409 146.971 262.954 146.511 262.45 146.511H257.806C257.251 146.511 256.847 146.971 256.847 147.483V169.137H256.797L235.8 146.542H234.538C234.033 146.542 233.579 146.951 233.579 147.462V181.865Z" fill="#19526C"/>
<path d="M271.016 181.848C271.016 182.367 271.42 182.833 271.975 182.833H276.619C277.124 182.833 277.578 182.367 277.578 181.848V168.731H290.046C290.551 168.731 291.005 168.265 291.005 167.746V163.495C291.005 162.977 290.551 162.51 290.046 162.51H277.578V152.763H292.519C293.075 152.763 293.478 152.296 293.478 151.778V147.527C293.478 147.008 293.075 146.542 292.519 146.542H271.975C271.42 146.542 271.016 147.008 271.016 147.527V181.848Z" fill="#19526C"/>
<path d="M296.687 164.738C296.687 174.819 304.73 182.833 314.846 182.833C324.962 182.833 333.055 174.819 333.055 164.738C333.055 154.657 324.962 146.542 314.846 146.542C304.73 146.542 296.687 154.657 296.687 164.738ZM303.263 164.738C303.263 158.387 308.473 153.094 314.846 153.094C321.219 153.094 326.479 158.387 326.479 164.738C326.479 171.089 321.219 176.281 314.846 176.281C308.473 176.281 303.263 171.089 303.263 164.738Z" fill="#19526C"/>
<path d="M337.821 178.902C338.821 179.859 342.523 182.833 348.825 182.833C355.878 182.833 360.33 178.045 360.33 172.853C360.33 166.351 354.728 163.427 349.876 161.462C345.824 159.798 343.973 158.185 343.973 155.816C343.973 154.203 345.524 152.288 348.375 152.288C351.126 152.288 354.928 154.808 355.328 155.06C355.928 155.463 356.679 155.06 357.079 154.455L358.98 151.582C359.33 151.078 359.18 150.221 358.68 149.919C357.679 149.163 353.778 146.542 348.675 146.542C340.722 146.542 337.421 151.733 337.421 156.219C337.421 162.167 342.123 165.192 346.825 167.107C351.026 168.821 353.177 170.585 353.177 173.156C353.177 175.323 351.226 177.037 348.625 177.037C345.374 177.037 341.322 174.063 341.072 173.912C340.622 173.559 339.772 173.559 339.371 174.264L337.571 177.39C337.12 178.196 337.371 178.448 337.821 178.902Z" fill="#19526C"/>
<path d="M366.748 181.64C366.748 182.305 367.253 182.867 367.959 182.867H372.401C373.057 182.867 373.612 182.305 373.612 181.64V165.507L383.06 176.604C383.862 177.417 384.3 177.059 384.568 176.788L387.338 174.167C388.141 173.625 388.141 172.812 387.606 172.271L379.972 163.411L393.146 148.382C393.802 147.615 393.297 146.542 392.338 146.542H387.291C386.836 146.542 386.534 146.797 386.332 147.053L373.612 161.571V147.769C373.612 147.104 373.057 146.542 372.401 146.542H367.959C367.253 146.542 366.748 147.104 366.748 147.769V181.64Z" fill="#19526C"/>
<path d="M386.698 179.105C387.556 180.178 389.978 182.837 394.37 182.837C400.275 182.837 404.969 178.747 404.969 171.641V147.513C404.969 147.002 404.565 146.542 404.01 146.542H399.266C398.71 146.542 398.307 147.002 398.307 147.513V171.641C398.307 175.169 396.237 176.805 394.269 176.805C392.603 176.805 391.594 175.884 390.937 175.169C390.483 174.709 389.978 174.606 389.423 175.118L386.799 177.827C386.496 178.185 386.445 178.696 386.698 179.105Z" fill="#19526C"/>
<path d="M442.157 181.848C442.157 182.367 442.558 182.833 443.109 182.833H447.719C448.22 182.833 448.671 182.367 448.671 181.848V168.628H454.233L460.897 182.367C460.997 182.574 461.248 182.833 461.699 182.833H466.96C467.812 182.833 468.162 182.004 467.812 181.33L460.947 168.161C465.306 166.347 468.363 162.458 468.363 157.688C468.363 151.519 463.452 146.542 457.44 146.542H443.109C442.558 146.542 442.157 147.008 442.157 147.527V181.848ZM448.721 163.08V152.763H456.888C459.544 152.763 461.849 155.044 461.849 157.792C461.849 160.695 459.544 163.08 456.888 163.08H448.721Z" fill="#19526C"/>
<path d="M517.566 181.848C517.566 182.367 517.97 182.833 518.525 182.833H539.069C539.624 182.833 540.028 182.367 540.028 181.848V177.597C540.028 177.078 539.624 176.612 539.069 176.612H524.128V167.539H536.596C537.1 167.539 537.555 167.124 537.555 166.554V162.251C537.555 161.732 537.1 161.266 536.596 161.266H524.128V152.763H539.069C539.624 152.763 540.028 152.296 540.028 151.778V147.527C540.028 147.008 539.624 146.542 539.069 146.542H518.525C517.97 146.542 517.566 147.008 517.566 147.527V181.848Z" fill="#19526C"/>
<path d="M546.446 181.865C546.446 182.377 546.9 182.837 547.405 182.837H551.998C552.553 182.837 552.957 182.377 552.957 181.865V159.884H553.007L574.105 182.806H575.316C575.821 182.806 576.275 182.397 576.275 181.886V147.483C576.275 146.971 575.821 146.511 575.316 146.511H570.673C570.118 146.511 569.714 146.971 569.714 147.483V169.137H569.663L548.667 146.542H547.405C546.9 146.542 546.446 146.951 546.446 147.462V181.865Z" fill="#19526C"/>
<path d="M472.657 181.661C472.556 182.377 472.96 182.837 473.616 182.837H478.158C478.613 182.837 479.016 182.428 479.067 182.07L481.994 162.695C482.045 162.695 482.146 162.695 482.146 162.695L491.079 182.244C491.231 182.551 491.483 182.806 491.937 182.806H492.846C493.3 182.806 493.603 182.551 493.704 182.244L502.537 162.695C502.537 162.695 502.638 162.695 502.688 162.695L505.666 182.07C505.767 182.428 506.171 182.837 506.625 182.837H511.218C511.874 182.837 512.278 182.377 512.127 181.661L506.171 147.308C506.12 146.899 505.818 146.542 505.262 146.542H504.455C504.001 146.542 503.748 146.746 503.597 147.053L492.493 171.181C492.442 171.181 492.442 171.181 492.341 171.181L481.237 147.053C481.086 146.746 480.783 146.542 480.379 146.542H479.572C479.016 146.542 478.714 146.899 478.663 147.308L472.657 181.661Z" fill="#19526C"/>
<path d="M411.672 181.848C411.672 182.367 412.076 182.833 412.631 182.833H433.176C433.731 182.833 434.135 182.367 434.135 181.848V177.597C434.135 177.078 433.731 176.612 433.176 176.612H418.234V167.539H430.702C431.207 167.539 431.661 167.124 431.661 166.554V162.251C431.661 161.732 431.207 161.266 430.702 161.266H418.234V152.763H433.176C433.731 152.763 434.135 152.296 434.135 151.778V147.527C434.135 147.008 433.731 146.542 433.176 146.542H412.631C412.076 146.542 411.672 147.008 411.672 147.527V181.848Z" fill="#19526C"/>
<path d="M608.513 287.897C596.72 287.897 586.106 286.503 576.672 283.716C567.452 280.714 559.625 276.854 553.193 272.137C546.974 267.205 541.936 262.059 538.076 256.699C534.612 251.401 532.31 246.298 531.17 241.388C531.065 240.937 531.295 240.478 531.714 240.281L568.277 223.075C568.812 222.823 569.445 223.088 569.66 223.638C570.696 226.296 572.069 228.954 573.777 231.611C575.921 234.399 578.494 236.972 581.496 239.331C584.498 241.689 588.036 243.619 592.11 245.12C596.399 246.621 601.116 247.371 606.262 247.371C611.408 247.371 616.018 246.514 620.092 244.798C624.166 243.083 627.597 240.724 630.384 237.722C633.386 234.721 635.638 231.183 637.139 227.109C638.64 223.035 639.39 218.639 639.39 213.922C639.39 209.204 638.533 204.916 636.817 201.056C635.102 197.197 632.636 193.873 629.42 191.086C626.418 188.298 622.558 186.154 617.841 184.653C613.338 183.152 608.299 182.402 602.724 182.402H596.97C596.418 182.402 595.97 181.954 595.97 181.402V148.022C595.97 147.47 596.418 147.023 596.97 147.011C600.677 146.93 604.203 146.398 607.549 145.414C611.194 144.342 614.41 142.626 617.198 140.268C620.199 137.909 622.451 135.014 623.952 131.584C625.667 127.939 626.525 123.864 626.525 119.362C626.525 116.36 625.989 113.572 624.917 110.999C624.059 108.212 622.665 105.853 620.736 103.923C619.02 101.993 616.983 100.493 614.624 99.4204C612.266 98.3483 609.8 97.8122 607.227 97.8122C604.654 97.8122 602.188 98.3483 599.829 99.4204C597.471 100.493 595.434 101.993 593.718 103.923C592.003 105.853 590.609 108.212 589.537 110.999C588.764 113.513 588.339 116.289 588.263 119.327C588.249 119.879 587.803 120.327 587.251 120.327H544.544C543.991 120.327 543.543 119.879 543.549 119.326C543.662 109.227 545.482 100.233 549.011 92.3445C552.657 84.1965 557.481 77.4422 563.485 72.0816C569.703 66.7211 576.672 62.7543 584.391 60.1812C592.325 57.3937 600.365 56 608.513 56C616.447 56 624.166 57.2865 631.671 59.8596C639.176 62.2182 645.93 65.8634 651.934 70.7951C657.938 75.7268 662.655 81.8378 666.086 89.1282C669.516 96.2041 671.232 104.352 671.232 113.572C671.232 118.29 670.803 122.9 669.945 127.402C669.088 131.691 667.694 135.872 665.764 139.946C664.049 144.02 661.69 147.773 658.688 151.203C656.133 154.123 653.19 156.733 649.858 159.032C649.16 159.513 649.299 160.612 650.096 160.901C655.902 163.002 661.018 165.881 665.442 169.536C670.374 173.396 674.234 177.899 677.021 183.045C680.023 187.977 682.167 193.23 683.454 198.805C684.955 204.165 685.705 209.526 685.705 214.887C685.705 225.608 683.776 235.471 679.916 244.477C676.271 253.268 671.017 260.987 664.156 267.634C657.294 274.067 649.146 279.106 639.712 282.751C630.277 286.182 619.878 287.897 608.513 287.897Z" fill="white" stroke="#19526C" stroke-width="5"/>
<path d="M751.5 126.5C751.5 127.655 750.817 128.869 749.37 129.858C747.932 130.843 745.861 131.5 743.5 131.5C741.139 131.5 739.068 130.843 737.63 129.858C736.183 128.869 735.5 127.655 735.5 126.5C735.5 125.345 736.183 124.131 737.63 123.142C739.068 122.157 741.139 121.5 743.5 121.5C745.861 121.5 747.932 122.157 749.37 123.142C750.817 124.131 751.5 125.345 751.5 126.5Z" stroke="#19526C" stroke-width="3"/>
<path d="M780.5 116.5C780.5 117.655 779.817 118.869 778.37 119.858C776.932 120.843 774.861 121.5 772.5 121.5C770.139 121.5 768.068 120.843 766.63 119.858C765.183 118.869 764.5 117.655 764.5 116.5C764.5 115.345 765.183 114.131 766.63 113.142C768.068 112.157 770.139 111.5 772.5 111.5C774.861 111.5 776.932 112.157 778.37 113.142C779.817 114.131 780.5 115.345 780.5 116.5Z" stroke="#19526C" stroke-width="3"/>
<path d="M780.5 80L751.5 90V101.5L780.5 91.5V80Z" fill="#76B3CB"/>
<path d="M751.5 127V101.5M780.5 117V91.5M751.5 101.5V90L780.5 80V91.5M751.5 101.5L780.5 91.5" stroke="#19526C" stroke-width="3" stroke-miterlimit="1.5" stroke-linecap="round" stroke-linejoin="round"/>
<path d="M731.5 60.5C731.5 61.6555 730.817 62.8688 729.37 63.8582C727.932 64.8428 725.861 65.5 723.5 65.5C721.139 65.5 719.068 64.8428 717.63 63.8582C716.183 62.8688 715.5 61.6555 715.5 60.5C715.5 59.3445 716.183 58.1312 717.63 57.1418C719.068 56.1572 721.139 55.5 723.5 55.5C725.861 55.5 727.932 56.1572 729.37 57.1418C730.817 58.1312 731.5 59.3445 731.5 60.5Z" stroke="#19526C" stroke-width="3"/>
<path d="M760.5 50.5C760.5 51.6555 759.817 52.8688 758.37 53.8582C756.932 54.8428 754.861 55.5 752.5 55.5C750.139 55.5 748.068 54.8428 746.63 53.8582C745.183 52.8688 744.5 51.6555 744.5 50.5C744.5 49.3445 745.183 48.1312 746.63 47.1418C748.068 46.1572 750.139 45.5 752.5 45.5C754.861 45.5 756.932 46.1572 758.37 47.1418C759.817 48.1312 760.5 49.3445 760.5 50.5Z" stroke="#19526C" stroke-width="3"/>
<path d="M760.5 14L731.5 24V35.5L760.5 25.5V14Z" fill="#76B3CB"/>
<path d="M731.5 61V35.5M760.5 51V25.5M731.5 35.5V24L760.5 14V25.5M731.5 35.5L760.5 25.5" stroke="#19526C" stroke-width="3" stroke-miterlimit="1.5" stroke-linecap="round" stroke-linejoin="round"/>
<path d="M711.5 120.5C711.5 121.655 710.817 122.869 709.37 123.858C707.932 124.843 705.861 125.5 703.5 125.5C701.139 125.5 699.068 124.843 697.63 123.858C696.183 122.869 695.5 121.655 695.5 120.5C695.5 119.345 696.183 118.131 697.63 117.142C699.068 116.157 701.139 115.5 703.5 115.5C705.861 115.5 707.932 116.157 709.37 117.142C710.817 118.131 711.5 119.345 711.5 120.5Z" stroke="#19526C" stroke-width="3"/>
<path d="M711.5 83V94.5V120" stroke="#19526C" stroke-width="3" stroke-miterlimit="1.5" stroke-linecap="round" stroke-linejoin="round"/>
<path d="M207.672 0C182.638 39.1044 108.088 112.181 0 113.711" stroke="#19526C" stroke-width="3.54186" stroke-linecap="round"/>
<path d="M51.4222 107.143C38.1675 110.88 30.1058 112.156 17.591 112.891C16.648 112.946 16.1378 114.029 16.7043 114.785L39.6734 145.436C40.2528 146.209 41.4649 145.997 41.7473 145.073L52.8862 108.627C53.1603 107.73 52.3247 106.888 51.4222 107.143Z" fill="white" stroke="#19526C" stroke-width="3.54186"/>
<path d="M104.606 88.8394C92.4778 95.364 84.8849 98.3583 72.8276 101.791C71.9191 102.05 71.6561 103.217 72.3731 103.833L101.445 128.77C102.179 129.399 103.316 128.929 103.391 127.966L106.357 89.9711C106.43 89.0362 105.432 88.3952 104.606 88.8394Z" fill="#76B3CB" stroke="#19526C" stroke-width="3.54186"/>
<path d="M155.473 56.4417C145.044 65.4353 138.279 70.0012 127.25 75.9608C126.418 76.4098 126.414 77.607 127.247 78.0524L161.026 96.1104C161.878 96.5659 162.886 95.861 162.751 94.9044L157.428 57.1676C157.297 56.2391 156.184 55.8293 155.473 56.4417Z" fill="white" stroke="#19526C" stroke-width="3.54186"/>
<path d="M194.864 18.2491C186.335 29.0623 180.562 34.8316 170.867 42.7801C170.137 43.379 170.361 44.5551 171.263 44.8339L207.86 56.1378C208.783 56.4229 209.639 55.539 209.324 54.6255L196.921 18.5901C196.616 17.7034 195.444 17.5129 194.864 18.2491Z" fill="#C9DDBA" stroke="#19526C" stroke-width="3.54186"/>
<path d="M382.772 298.506L413.492 241.047C426.506 238.312 451.162 267.829 442.783 285.292L384.714 300.956C383.279 301.343 382.07 299.818 382.772 298.506Z" fill="white"/>
<path d="M412.165 240.736C410.577 261.893 431.601 280.2 439.024 285.028L416.738 290.45C409.679 280.325 404.491 262.251 403.808 257.234C409.903 246.371 412.165 240.736 412.165 240.736Z" fill="#76B3CB"/>
<path d="M395.326 274.858C393.549 281.875 396.204 298.613 396.204 298.613L386.459 300.66C386.459 300.66 381.448 299.362 384.3 294.285C390.41 283.404 395.326 274.858 395.326 274.858Z" fill="#76B3CB"/>
<path d="M434.024 227.15C434.587 237.283 432.767 242.941 426.643 252.992" stroke="#19526C" stroke-width="3.39378" stroke-linecap="round"/>
<path d="M462.64 274.594C453.554 270.671 447.997 269.195 436.139 269.599" stroke="#19526C" stroke-width="3.39378" stroke-linecap="round"/>
<path d="M472.112 256.095L440.644 261.783" stroke="#19526C" stroke-width="3.39378" stroke-linecap="round"/>
<path d="M450.601 243.86L432.356 257.227" stroke="#19526C" stroke-width="3.39378" stroke-linecap="round"/>
<path d="M422.937 242.861C418.9 239.807 415.395 238.61 413.369 239.989C409.295 242.761 412.746 254.901 421.076 267.104C429.407 279.306 439.462 286.951 443.536 284.178C445.152 283.078 445.584 280.503 444.996 277.035" stroke="#19526C" stroke-width="3.39378" stroke-linecap="round"/>
<path d="M443.398 284.358L388.489 300.649C384.769 301.753 381.607 297.652 383.622 294.336L389.243 285.084" stroke="#19526C" stroke-width="3.39378" stroke-linecap="round"/>
<path d="M415.87 290.726C415.87 290.726 402.913 272.424 404.596 257.501" stroke="#19526C" stroke-width="3.39378" stroke-linecap="round"/>
<path d="M396.712 295.41C395.595 293.735 394.354 283.158 396.433 274.964" stroke="#19526C" stroke-width="3.39378" stroke-linecap="round"/>
<path d="M482.881 253.395L478.997 254.482" stroke="#19526C" stroke-width="3.39378" stroke-linecap="round"/>
<path d="M475.05 267.314L473.963 263.43" stroke="#19526C" stroke-width="3.39378" stroke-linecap="round"/>
<path d="M470.05 249.448L468.962 245.564" stroke="#19526C" stroke-width="3.39378" stroke-linecap="round"/>
<path d="M475.405 249.235L477.383 245.719" stroke="#19526C" stroke-width="3.39378" stroke-linecap="round"/>
<path d="M463.382 208.827L464.383 204.92" stroke="#19526C" stroke-width="3.39378" stroke-linecap="round"/>
<path d="M460.38 220.549L461.381 216.641" stroke="#19526C" stroke-width="3.39378" stroke-linecap="round"/>
<path d="M470.977 214.936L467.069 213.935" stroke="#19526C" stroke-width="3.39378" stroke-linecap="round"/>
<path d="M457.693 211.534L453.785 210.533" stroke="#19526C" stroke-width="3.39378" stroke-linecap="round"/>
<path d="M482.065 262.449L478.55 260.471" stroke="#19526C" stroke-width="3.39378" stroke-linecap="round"/>
<path d="M438.37 212.016C437.571 215.175 434.329 217.093 431.104 216.257C427.879 215.421 425.947 212.162 426.746 209.003C427.545 205.844 430.787 203.926 434.012 204.762C437.237 205.598 439.169 208.857 438.37 212.016Z" fill="#83DDA4" stroke="#19526C" stroke-width="3.39378"/>
<mask id="path-67-inside-1_10_77" fill="white">
<rect width="12.1215" height="12.0786" rx="1" transform="matrix(0.8536 0.526969 -0.521613 0.849389 457.59 226.601)"/>
</mask>
<rect width="12.1215" height="12.0786" rx="1" transform="matrix(0.8536 0.526969 -0.521613 0.849389 457.59 226.601)" fill="#FA95B8" stroke="#19526C" stroke-width="6.78755" mask="url(#path-67-inside-1_10_77)"/>
<path d="M478.622 272.741L479.185 280.908L487.166 282.977L479.532 285.955L480.094 294.122L474.814 287.796L467.18 290.774L471.55 283.886L466.27 277.56L474.252 279.629L478.622 272.741Z" fill="#0081BE"/>
<path d="M451.7 286.628C459.532 293.623 470.56 312.734 456.19 306.826C445.602 302.474 462.772 285.772 477.543 313.187" stroke="#19526C" stroke-width="3.39378" stroke-linecap="round"/>
</g>
</svg>
