<svg width="800" height="330" viewBox="0 0 800 330" fill="none" xmlns="http://www.w3.org/2000/svg">
<rect width="800" height="330" rx="18" fill="url(#paint0_linear_10_296)"/>
<path fill-rule="evenodd" clip-rule="evenodd" d="M220.753 214.698C220.753 214.012 220.196 213.456 219.51 213.456L133.163 213.456C132.477 213.456 131.92 214.012 131.92 214.698V217.183C131.92 217.869 132.477 218.426 133.163 218.426L219.51 218.426C220.196 218.426 220.753 217.869 220.753 217.183V214.698Z" fill="white" fill-opacity="0.56"/>
<path fill-rule="evenodd" clip-rule="evenodd" d="M203.747 226.367C203.747 225.681 203.19 225.125 202.504 225.125H150.159C149.473 225.125 148.916 225.681 148.916 226.367V228.852C148.916 229.538 149.473 230.095 150.159 230.095H202.504C203.19 230.095 203.747 229.538 203.747 228.852V226.367Z" fill="white" fill-opacity="0.2"/>
<path fill-rule="evenodd" clip-rule="evenodd" d="M131.913 124.397C131.913 125.083 132.47 125.639 133.156 125.639L219.503 125.639C220.189 125.639 220.746 125.083 220.746 124.397V121.912C220.746 121.226 220.189 120.669 219.503 120.669L133.156 120.669C132.47 120.669 131.913 121.226 131.913 121.912V124.397Z" fill="white" fill-opacity="0.56"/>
<path fill-rule="evenodd" clip-rule="evenodd" d="M148.919 112.728C148.919 113.414 149.476 113.97 150.162 113.97H202.507C203.193 113.97 203.75 113.414 203.75 112.728V110.243C203.75 109.557 203.193 109 202.507 109H150.162C149.476 109 148.919 109.557 148.919 110.243V112.728Z" fill="white" fill-opacity="0.2"/>
<path fill-rule="evenodd" clip-rule="evenodd" d="M234.335 132.598C239.484 132.598 243.665 136.778 243.665 141.927V197.128C243.665 202.277 239.484 206.458 234.335 206.458H118.33C113.181 206.458 109 202.277 109 197.128V141.927C109 136.778 113.181 132.598 118.33 132.598H234.335ZM190.626 155.883C200.43 156.604 202.774 169.554 195.9 178.859C189.924 186.951 195.059 189.859 197.488 191.235C198.697 191.919 199.235 192.224 197.399 192.6C193.253 193.448 178.619 187.354 182.374 184.678C182.382 184.672 182.388 184.666 182.397 184.661C188.1 180.386 191.79 174.644 192.338 170.146C192.646 167.618 191.903 165.663 190.248 164.638C187.365 162.854 182.281 164.263 175.546 168.713C169.875 172.46 164.362 173.393 160.798 171.207C158.675 169.904 157.44 167.598 157.866 165.095C158.88 159.131 163.78 156.461 166.492 154.982C167.728 154.309 168.509 153.883 168.264 153.506C167.481 152.301 156.956 156.464 155.495 164.823C154.895 168.263 156.615 171.44 159.551 173.241C161.651 174.53 167.542 176.862 176.861 170.704C185.232 165.172 191.122 165.738 189.368 171.477C184.467 187.505 163.302 184.977 169.539 183.19C175.904 181.366 183.103 175.011 181.924 174.266C181.648 174.091 180.676 174.729 179.198 175.696C174.341 178.877 164.032 185.629 155.103 178.89C151.247 175.586 148.914 171.303 148.914 166.62C148.914 156.161 160.527 147.682 174.852 147.682C190.831 147.682 192.728 153.956 190.612 153.673C175.391 151.642 163.034 164.74 165.597 166.133C166.028 166.367 166.801 165.638 168.035 164.473C171.379 161.316 178.112 154.961 190.626 155.883Z" fill="white"/>
<path d="M272.958 173.233C272.958 173.823 273.488 174.353 274.078 174.353H279.559C280.148 174.353 280.678 173.823 280.678 173.233V133.563C280.678 132.973 280.148 132.442 279.559 132.442H274.078C273.488 132.442 272.958 132.973 272.958 133.563V173.233Z" fill="white"/>
<path d="M289.819 173.198C289.819 173.787 290.349 174.318 290.939 174.318H296.302C296.95 174.318 297.421 173.787 297.421 173.198V147.836H297.48L322.115 174.283H323.529C324.119 174.283 324.649 173.811 324.649 173.221V133.527C324.649 132.938 324.119 132.407 323.529 132.407H318.107C317.459 132.407 316.988 132.938 316.988 133.527V158.511H316.929L292.412 132.442H290.939C290.349 132.442 289.819 132.914 289.819 133.504V173.198Z" fill="white"/>
<path d="M333.531 173.178C333.531 173.776 334.003 174.314 334.651 174.314H340.074C340.663 174.314 341.194 173.776 341.194 173.178V158.044H355.751C356.341 158.044 356.871 157.506 356.871 156.907V152.002C356.871 151.404 356.341 150.866 355.751 150.866H341.194V139.62H358.639C359.288 139.62 359.759 139.082 359.759 138.484V133.579C359.759 132.98 359.288 132.442 358.639 132.442H334.651C334.003 132.442 333.531 132.98 333.531 133.579V173.178Z" fill="white"/>
<path d="M363.506 153.436C363.506 165.067 372.897 174.314 384.709 174.314C396.52 174.314 405.97 165.067 405.97 153.436C405.97 141.805 396.52 132.442 384.709 132.442C372.897 132.442 363.506 141.805 363.506 153.436ZM371.184 153.436C371.184 146.109 377.267 140.002 384.709 140.002C392.15 140.002 398.292 146.109 398.292 153.436C398.292 160.764 392.15 166.754 384.709 166.754C377.267 166.754 371.184 160.764 371.184 153.436Z" fill="white"/>
<path d="M411.535 169.778C412.703 170.883 417.025 174.314 424.384 174.314C432.62 174.314 437.818 168.789 437.818 162.799C437.818 155.297 431.276 151.924 425.611 149.656C420.88 147.737 418.719 145.876 418.719 143.143C418.719 141.282 420.529 139.072 423.859 139.072C427.071 139.072 431.51 141.98 431.977 142.27C432.678 142.736 433.554 142.27 434.021 141.572L436.241 138.258C436.65 137.676 436.474 136.687 435.89 136.338C434.722 135.466 430.167 132.442 424.209 132.442C414.922 132.442 411.068 138.432 411.068 143.608C411.068 150.47 416.558 153.96 422.048 156.17C426.954 158.147 429.466 160.182 429.466 163.148C429.466 165.649 427.188 167.626 424.151 167.626C420.354 167.626 415.623 164.195 415.331 164.021C414.806 163.614 413.813 163.614 413.345 164.428L411.243 168.033C410.717 168.964 411.009 169.255 411.535 169.778Z" fill="white"/>
<path d="M445.312 172.938C445.312 173.705 445.901 174.353 446.726 174.353H451.912C452.678 174.353 453.327 173.705 453.327 172.938V154.324L464.358 167.127C465.295 168.065 465.806 167.652 466.118 167.339L469.354 164.315C470.29 163.69 470.29 162.753 469.666 162.128L460.752 151.906L476.134 134.565C476.9 133.681 476.311 132.442 475.191 132.442H469.298C468.767 132.442 468.414 132.737 468.178 133.032L453.327 149.782V133.858C453.327 133.091 452.678 132.442 451.912 132.442H446.726C445.901 132.442 445.312 133.091 445.312 133.858V172.938Z" fill="white"/>
<path d="M468.605 170.013C469.607 171.251 472.436 174.318 477.563 174.318C484.459 174.318 489.94 169.6 489.94 161.401V133.563C489.94 132.973 489.468 132.442 488.82 132.442H483.28C482.632 132.442 482.16 132.973 482.16 133.563V161.401C482.16 165.471 479.744 167.358 477.446 167.358C475.501 167.358 474.322 166.297 473.556 165.471C473.025 164.94 472.436 164.822 471.788 165.412L468.723 168.538C468.37 168.951 468.311 169.541 468.605 170.013Z" fill="white"/>
<path d="M533.362 173.178C533.362 173.776 533.83 174.314 534.473 174.314H539.856C540.441 174.314 540.967 173.776 540.967 173.178V157.924H547.462L555.243 173.776C555.36 174.015 555.653 174.314 556.179 174.314H562.322C563.317 174.314 563.727 173.357 563.317 172.58L555.302 157.386C560.392 155.292 563.961 150.806 563.961 145.303C563.961 138.184 558.227 132.442 551.206 132.442H534.473C533.83 132.442 533.362 132.98 533.362 133.579V173.178ZM541.026 151.524V139.62H550.563C553.663 139.62 556.355 142.252 556.355 145.422C556.355 148.772 553.663 151.524 550.563 151.524H541.026Z" fill="white"/>
<path d="M621.412 173.178C621.412 173.776 621.883 174.314 622.531 174.314H646.519C647.168 174.314 647.639 173.776 647.639 173.178V168.273C647.639 167.675 647.168 167.136 646.519 167.136H629.074V156.668H643.631C644.221 156.668 644.751 156.19 644.751 155.532V150.567C644.751 149.969 644.221 149.43 643.631 149.43H629.074V139.62H646.519C647.168 139.62 647.639 139.082 647.639 138.484V133.579C647.639 132.98 647.168 132.442 646.519 132.442H622.531C621.883 132.442 621.412 132.98 621.412 133.579V173.178Z" fill="white"/>
<path d="M655.133 173.198C655.133 173.787 655.663 174.318 656.253 174.318H661.616C662.264 174.318 662.736 173.787 662.736 173.198V147.836H662.795L687.429 174.283H688.843C689.433 174.283 689.963 173.811 689.963 173.221V133.527C689.963 132.938 689.433 132.407 688.843 132.407H683.422C682.773 132.407 682.302 132.938 682.302 133.527V158.511H682.243L657.726 132.442H656.253C655.663 132.442 655.133 132.914 655.133 133.504V173.198Z" fill="white"/>
<path d="M568.974 172.962C568.856 173.787 569.328 174.318 570.094 174.318H575.398C575.929 174.318 576.4 173.846 576.459 173.433L579.877 151.08C579.936 151.08 580.054 151.08 580.054 151.08L590.485 173.634C590.662 173.988 590.957 174.283 591.487 174.283H592.548C593.078 174.283 593.432 173.988 593.55 173.634L603.863 151.08C603.863 151.08 603.981 151.08 604.04 151.08L607.517 173.433C607.635 173.846 608.107 174.318 608.637 174.318H614C614.766 174.318 615.238 173.787 615.061 172.962L608.107 133.327C608.048 132.855 607.694 132.442 607.046 132.442H606.103C605.572 132.442 605.278 132.678 605.101 133.032L592.135 160.871C592.077 160.871 592.077 160.871 591.959 160.871L578.993 133.032C578.816 132.678 578.463 132.442 577.991 132.442H577.048C576.4 132.442 576.046 132.855 575.987 133.327L568.974 172.962Z" fill="white"/>
<path d="M497.767 173.178C497.767 173.776 498.238 174.314 498.887 174.314H522.875C523.523 174.314 523.995 173.776 523.995 173.178V168.273C523.995 167.675 523.523 167.136 522.875 167.136H505.429V156.668H519.987C520.576 156.668 521.107 156.19 521.107 155.532V150.567C521.107 149.969 520.576 149.43 519.987 149.43H505.429V139.62H522.875C523.523 139.62 523.995 139.082 523.995 138.484V133.579C523.995 132.98 523.523 132.442 522.875 132.442H498.887C498.238 132.442 497.767 132.98 497.767 133.579V173.178Z" fill="white"/>
<path d="M273.361 208.235V187.412H278.448C280.134 187.412 281.631 187.61 282.94 188.006C284.269 188.383 285.389 188.978 286.301 189.791C287.233 190.604 287.947 191.656 288.443 192.945C288.939 194.234 289.187 195.761 289.187 197.526C289.187 199.212 288.949 200.719 288.473 202.048C287.997 203.376 287.313 204.507 286.42 205.439C285.548 206.351 284.507 207.045 283.297 207.521C282.107 207.997 280.788 208.235 279.34 208.235H273.361ZM275.443 206.45H279.34C280.471 206.45 281.502 206.252 282.434 205.855C283.386 205.439 284.209 204.844 284.903 204.07C285.597 203.297 286.133 202.355 286.51 201.244C286.886 200.134 287.075 198.884 287.075 197.496C287.075 195.969 286.876 194.68 286.48 193.629C286.083 192.558 285.518 191.705 284.784 191.071C284.05 190.416 283.148 189.94 282.077 189.643C281.026 189.345 279.816 189.196 278.448 189.196H275.443V206.45ZM305.084 206.272V208.235H293.958V187.412H305.084V189.375H296.04V196.395H303.269V198.359H296.04V206.272H305.084ZM322.931 187.412V208.235H320.848V202.583L312.698 191.487C312.638 191.408 312.569 191.328 312.489 191.249C312.43 191.17 312.38 191.09 312.341 191.011C312.301 190.932 312.261 190.872 312.222 190.833C312.202 190.773 312.182 190.723 312.162 190.684C312.162 190.704 312.162 190.763 312.162 190.862C312.182 190.942 312.192 191.021 312.192 191.1C312.192 191.18 312.192 191.279 312.192 191.398C312.212 191.497 312.222 191.596 312.222 191.695V208.235H310.139V187.412H312.37L320.373 198.418C320.432 198.498 320.492 198.587 320.551 198.686C320.611 198.785 320.62 198.805 320.581 198.745C320.541 198.666 320.581 198.736 320.7 198.954C320.839 199.172 320.908 199.281 320.908 199.281C320.908 199.261 320.898 199.212 320.878 199.132C320.878 199.053 320.878 198.974 320.878 198.894C320.878 198.795 320.868 198.686 320.848 198.567C320.848 198.448 320.848 198.339 320.848 198.24V187.412H322.931ZM356.299 187.412L359.155 208.235H356.953L355.02 191.903C355 191.765 354.98 191.626 354.96 191.487C354.94 191.328 354.92 191.19 354.901 191.071C354.901 190.952 354.891 190.852 354.871 190.773C354.871 190.674 354.871 190.604 354.871 190.565C354.851 190.604 354.811 190.733 354.752 190.952C354.692 191.17 354.643 191.348 354.603 191.487C354.564 191.606 354.524 191.725 354.484 191.844L348.683 208.235H347.374L341.544 191.844C341.504 191.725 341.455 191.606 341.395 191.487C341.355 191.348 341.316 191.219 341.276 191.1C341.236 190.961 341.197 190.852 341.157 190.773C341.137 190.674 341.127 190.604 341.127 190.565C341.127 190.585 341.117 190.644 341.098 190.743C341.098 190.842 341.088 190.961 341.068 191.1C341.068 191.219 341.058 191.348 341.038 191.487C341.038 191.626 341.028 191.765 341.008 191.903L339.104 208.235H336.903L339.759 187.412H341.96L347.702 203.208L347.999 204.249C348.039 204.051 348.069 203.902 348.088 203.803C348.128 203.703 348.158 203.604 348.178 203.505C348.217 203.386 348.257 203.287 348.297 203.208L354.097 187.412H356.299ZM372.665 208.533C371.217 208.533 369.839 208.255 368.53 207.7C367.221 207.144 366.071 206.381 365.079 205.409C364.108 204.417 363.344 203.267 362.789 201.958C362.233 200.649 361.956 199.271 361.956 197.823C361.956 196.376 362.233 195.007 362.789 193.718C363.344 192.409 364.108 191.259 365.079 190.267C366.071 189.276 367.221 188.502 368.53 187.947C369.839 187.392 371.217 187.114 372.665 187.114C374.113 187.114 375.481 187.392 376.77 187.947C378.079 188.502 379.229 189.276 380.221 190.267C381.213 191.259 381.986 192.409 382.541 193.718C383.097 195.007 383.374 196.376 383.374 197.823C383.374 199.271 383.097 200.649 382.541 201.958C381.986 203.267 381.213 204.417 380.221 205.409C379.229 206.381 378.079 207.144 376.77 207.7C375.481 208.255 374.113 208.533 372.665 208.533ZM372.665 206.569C373.875 206.569 375.005 206.351 376.056 205.915C377.127 205.478 378.049 204.864 378.823 204.07C379.616 203.257 380.221 202.315 380.638 201.244C381.074 200.173 381.292 199.033 381.292 197.823C381.292 196.594 381.074 195.443 380.638 194.373C380.221 193.302 379.616 192.37 378.823 191.576C378.049 190.783 377.137 190.168 376.086 189.732C375.035 189.296 373.895 189.077 372.665 189.077C371.435 189.077 370.295 189.296 369.244 189.732C368.193 190.168 367.271 190.793 366.477 191.606C365.704 192.399 365.099 193.331 364.663 194.402C364.246 195.473 364.038 196.614 364.038 197.823C364.038 199.053 364.246 200.203 364.663 201.274C365.099 202.345 365.704 203.277 366.477 204.07C367.271 204.864 368.193 205.478 369.244 205.915C370.315 206.351 371.455 206.569 372.665 206.569ZM387.647 208.235V187.412H392.734C394.419 187.412 395.917 187.61 397.226 188.006C398.554 188.383 399.675 188.978 400.587 189.791C401.519 190.604 402.233 191.656 402.729 192.945C403.225 194.234 403.473 195.761 403.473 197.526C403.473 199.212 403.235 200.719 402.759 202.048C402.283 203.376 401.598 204.507 400.706 205.439C399.833 206.351 398.792 207.045 397.583 207.521C396.393 207.997 395.074 208.235 393.626 208.235H387.647ZM389.729 206.45H393.626C394.756 206.45 395.788 206.252 396.72 205.855C397.672 205.439 398.495 204.844 399.189 204.07C399.883 203.297 400.418 202.355 400.795 201.244C401.172 200.134 401.36 198.884 401.36 197.496C401.36 195.969 401.162 194.68 400.766 193.629C400.369 192.558 399.804 191.705 399.07 191.071C398.336 190.416 397.434 189.94 396.363 189.643C395.312 189.345 394.102 189.196 392.734 189.196H389.729V206.45ZM419.369 206.272V208.235H408.244V187.412H419.369V189.375H410.326V196.395H417.555V198.359H410.326V206.272H419.369ZM426.507 208.235H424.425V187.412H430.464C431.515 187.412 432.447 187.57 433.26 187.887C434.073 188.205 434.748 188.651 435.283 189.226C435.838 189.781 436.255 190.436 436.532 191.19C436.81 191.943 436.949 192.746 436.949 193.599C436.949 194.234 436.87 194.849 436.711 195.443C436.552 196.019 436.314 196.554 435.997 197.05C435.68 197.526 435.293 197.952 434.837 198.329C434.4 198.686 433.905 198.983 433.349 199.221L437.276 208.235H435.015L431.297 199.727C431.237 199.727 431.168 199.737 431.089 199.757C431.029 199.757 430.96 199.757 430.88 199.757C430.821 199.757 430.761 199.757 430.702 199.757C430.642 199.757 430.563 199.757 430.464 199.757H426.507V208.235ZM426.507 197.794H430.464C431.217 197.794 431.872 197.694 432.427 197.496C433.002 197.278 433.468 196.98 433.825 196.604C434.182 196.227 434.44 195.791 434.599 195.295C434.777 194.779 434.867 194.214 434.867 193.599C434.867 192.964 434.777 192.389 434.599 191.874C434.42 191.358 434.143 190.912 433.766 190.535C433.409 190.158 432.953 189.871 432.397 189.672C431.842 189.474 431.198 189.375 430.464 189.375H426.507V197.794ZM454.821 187.412V208.235H452.739V202.583L444.588 191.487C444.529 191.408 444.459 191.328 444.38 191.249C444.32 191.17 444.271 191.09 444.231 191.011C444.191 190.932 444.152 190.872 444.112 190.833C444.092 190.773 444.072 190.723 444.053 190.684C444.053 190.704 444.053 190.763 444.053 190.862C444.072 190.942 444.082 191.021 444.082 191.1C444.082 191.18 444.082 191.279 444.082 191.398C444.102 191.497 444.112 191.596 444.112 191.695V208.235H442.03V187.412H444.261L452.263 198.418C452.323 198.498 452.382 198.587 452.442 198.686C452.501 198.785 452.511 198.805 452.471 198.745C452.432 198.666 452.471 198.736 452.59 198.954C452.729 199.172 452.799 199.281 452.799 199.281C452.799 199.261 452.789 199.212 452.769 199.132C452.769 199.053 452.769 198.974 452.769 198.894C452.769 198.795 452.759 198.686 452.739 198.567C452.739 198.448 452.739 198.339 452.739 198.24V187.412H454.821ZM471.893 206.272V208.235H460.767V187.412H471.893V189.375H462.85V196.395H470.079V198.359H462.85V206.272H471.893ZM494.911 208.533C493.463 208.533 492.085 208.255 490.776 207.7C489.467 207.144 488.317 206.381 487.325 205.409C486.353 204.417 485.59 203.267 485.034 201.958C484.479 200.649 484.201 199.271 484.201 197.823C484.201 196.376 484.479 195.007 485.034 193.718C485.59 192.409 486.353 191.259 487.325 190.267C488.317 189.276 489.467 188.502 490.776 187.947C492.085 187.392 493.463 187.114 494.911 187.114C496.358 187.114 497.727 187.392 499.016 187.947C500.325 188.502 501.475 189.276 502.467 190.267C503.458 191.259 504.232 192.409 504.787 193.718C505.342 195.007 505.62 196.376 505.62 197.823C505.62 199.271 505.342 200.649 504.787 201.958C504.232 203.267 503.458 204.417 502.467 205.409C501.475 206.381 500.325 207.144 499.016 207.7C497.727 208.255 496.358 208.533 494.911 208.533ZM494.911 206.569C496.12 206.569 497.251 206.351 498.302 205.915C499.373 205.478 500.295 204.864 501.069 204.07C501.862 203.257 502.467 202.315 502.883 201.244C503.32 200.173 503.538 199.033 503.538 197.823C503.538 196.594 503.32 195.443 502.883 194.373C502.467 193.302 501.862 192.37 501.069 191.576C500.295 190.783 499.383 190.168 498.332 189.732C497.281 189.296 496.14 189.077 494.911 189.077C493.681 189.077 492.541 189.296 491.49 189.732C490.439 190.168 489.516 190.793 488.723 191.606C487.95 192.399 487.345 193.331 486.909 194.402C486.492 195.473 486.284 196.614 486.284 197.823C486.284 199.053 486.492 200.203 486.909 201.274C487.345 202.345 487.95 203.277 488.723 204.07C489.516 204.864 490.439 205.478 491.49 205.915C492.561 206.351 493.701 206.569 494.911 206.569ZM511.975 208.235H509.892V187.412H515.931C516.982 187.412 517.914 187.57 518.727 187.887C519.541 188.205 520.215 188.651 520.75 189.226C521.306 189.781 521.722 190.436 522 191.19C522.277 191.943 522.416 192.746 522.416 193.599C522.416 194.472 522.268 195.285 521.97 196.038C521.673 196.792 521.236 197.447 520.661 198.002C520.106 198.557 519.422 198.993 518.609 199.311C517.815 199.608 516.923 199.757 515.931 199.757H511.975V208.235ZM511.975 197.794H515.931C516.685 197.794 517.339 197.694 517.895 197.496C518.47 197.278 518.936 196.98 519.293 196.604C519.65 196.227 519.907 195.791 520.066 195.295C520.245 194.779 520.334 194.214 520.334 193.599C520.334 192.964 520.245 192.389 520.066 191.874C519.888 191.358 519.61 190.912 519.233 190.535C518.876 190.158 518.42 189.871 517.865 189.672C517.31 189.474 516.665 189.375 515.931 189.375H511.975V197.794ZM528.359 208.235H526.277V187.412H532.316C533.367 187.412 534.299 187.57 535.112 187.887C535.925 188.205 536.6 188.651 537.135 189.226C537.69 189.781 538.107 190.436 538.384 191.19C538.662 191.943 538.801 192.746 538.801 193.599C538.801 194.472 538.652 195.285 538.355 196.038C538.057 196.792 537.621 197.447 537.046 198.002C536.49 198.557 535.806 198.993 534.993 199.311C534.2 199.608 533.307 199.757 532.316 199.757H528.359V208.235ZM528.359 197.794H532.316C533.069 197.794 533.724 197.694 534.279 197.496C534.854 197.278 535.32 196.98 535.677 196.604C536.034 196.227 536.292 195.791 536.451 195.295C536.629 194.779 536.719 194.214 536.719 193.599C536.719 192.964 536.629 192.389 536.451 191.874C536.272 191.358 535.995 190.912 535.618 190.535C535.261 190.158 534.805 189.871 534.249 189.672C533.694 189.474 533.05 189.375 532.316 189.375H528.359V197.794ZM546.588 208.533C545.974 208.533 545.359 208.433 544.744 208.235C544.149 208.057 543.594 207.779 543.078 207.402C542.562 207.025 542.106 206.559 541.71 206.004C541.333 205.429 541.055 204.784 540.877 204.07L542.87 203.416C543.009 203.932 543.197 204.398 543.435 204.814C543.673 205.211 543.961 205.558 544.298 205.855C544.635 206.133 544.992 206.351 545.369 206.51C545.765 206.649 546.182 206.718 546.618 206.718C547.233 206.718 547.768 206.619 548.224 206.42C548.7 206.222 549.097 205.935 549.414 205.558C549.732 205.181 549.97 204.745 550.128 204.249C550.287 203.733 550.366 203.178 550.366 202.583C550.366 201.611 550.039 200.749 549.385 199.995C548.73 199.221 547.729 198.279 546.38 197.169C545.032 196.058 544.01 195.086 543.316 194.254C542.642 193.401 542.305 192.449 542.305 191.398C542.305 190.783 542.414 190.208 542.632 189.672C542.87 189.137 543.187 188.681 543.584 188.304C544 187.927 544.466 187.64 544.982 187.441C545.517 187.223 546.073 187.114 546.648 187.114C547.005 187.114 547.362 187.154 547.719 187.233C548.076 187.312 548.413 187.441 548.73 187.62C549.067 187.778 549.375 187.987 549.652 188.244C549.95 188.482 550.198 188.76 550.396 189.077L548.671 190.297C548.552 190.099 548.413 189.92 548.254 189.762C548.115 189.603 547.957 189.464 547.778 189.345C547.62 189.226 547.441 189.137 547.243 189.077C547.064 188.998 546.866 188.958 546.648 188.958C546.311 188.958 546.003 189.018 545.726 189.137C545.448 189.256 545.2 189.434 544.982 189.672C544.784 189.891 544.625 190.148 544.506 190.446C544.407 190.743 544.357 191.061 544.357 191.398C544.357 192.112 544.635 192.756 545.19 193.331C545.745 193.887 546.737 194.769 548.165 195.979C549.593 197.169 550.664 198.26 551.378 199.251C552.092 200.243 552.449 201.353 552.449 202.583C552.449 203.416 552.29 204.199 551.973 204.933C551.675 205.647 551.259 206.282 550.723 206.837C550.188 207.372 549.563 207.789 548.849 208.086C548.135 208.384 547.382 208.533 546.588 208.533ZM567.134 206.153V208.235H556.722V187.412H558.805V206.153H567.134ZM581.695 208.235L579.642 201.601H572.77L570.747 208.235H568.487L575.21 187.412H577.203L583.926 208.235H581.695ZM575.686 192.052L573.306 199.816H579.107L576.727 192.052C576.667 191.874 576.608 191.675 576.548 191.457C576.489 191.239 576.429 191.031 576.37 190.833C576.33 190.634 576.29 190.466 576.251 190.327C576.231 190.188 576.221 190.109 576.221 190.089C576.221 190.109 576.191 190.238 576.132 190.476C576.072 190.694 576.023 190.862 575.983 190.981C575.963 191.1 575.924 191.269 575.864 191.487C575.805 191.685 575.745 191.874 575.686 192.052ZM603.478 205.35C603.002 205.845 602.476 206.292 601.901 206.688C601.326 207.065 600.711 207.392 600.057 207.67C599.402 207.948 598.718 208.156 598.004 208.295C597.31 208.453 596.596 208.533 595.862 208.533C594.414 208.533 593.036 208.255 591.727 207.7C590.418 207.144 589.268 206.381 588.276 205.409C587.305 204.417 586.541 203.267 585.986 201.958C585.431 200.649 585.153 199.271 585.153 197.823C585.153 196.376 585.431 195.007 585.986 193.718C586.541 192.409 587.305 191.259 588.276 190.267C589.268 189.276 590.418 188.502 591.727 187.947C593.036 187.392 594.414 187.114 595.862 187.114C596.596 187.114 597.31 187.183 598.004 187.322C598.698 187.461 599.363 187.669 599.997 187.947C600.652 188.225 601.266 188.562 601.842 188.958C602.417 189.335 602.942 189.762 603.418 190.238L601.961 191.725C601.564 191.328 601.137 190.971 600.681 190.654C600.225 190.337 599.729 190.059 599.194 189.821C598.678 189.583 598.133 189.405 597.558 189.286C597.003 189.147 596.437 189.077 595.862 189.077C594.692 189.077 593.582 189.305 592.53 189.762C591.479 190.218 590.557 190.852 589.764 191.665C588.971 192.479 588.346 193.421 587.89 194.492C587.453 195.543 587.235 196.653 587.235 197.823C587.235 198.993 587.453 200.114 587.89 201.185C588.346 202.256 588.971 203.198 589.764 204.011C590.557 204.804 591.479 205.429 592.53 205.885C593.582 206.341 594.692 206.569 595.862 206.569C596.457 206.569 597.003 206.53 597.498 206.45C598.014 206.371 598.5 206.262 598.956 206.123C599.412 205.964 599.838 205.766 600.235 205.528C600.632 205.29 601.019 205.002 601.395 204.665V199.043H595.832V197.08H603.478V205.35ZM612.766 208.533C612.151 208.533 611.536 208.433 610.922 208.235C610.327 208.057 609.771 207.779 609.256 207.402C608.74 207.025 608.284 206.559 607.887 206.004C607.511 205.429 607.233 204.784 607.054 204.07L609.048 203.416C609.186 203.932 609.375 204.398 609.613 204.814C609.851 205.211 610.138 205.558 610.475 205.855C610.813 206.133 611.17 206.351 611.546 206.51C611.943 206.649 612.359 206.718 612.796 206.718C613.411 206.718 613.946 206.619 614.402 206.42C614.878 206.222 615.275 205.935 615.592 205.558C615.909 205.181 616.147 204.745 616.306 204.249C616.465 203.733 616.544 203.178 616.544 202.583C616.544 201.611 616.217 200.749 615.562 199.995C614.908 199.221 613.906 198.279 612.558 197.169C611.209 196.058 610.188 195.086 609.494 194.254C608.819 193.401 608.482 192.449 608.482 191.398C608.482 190.783 608.591 190.208 608.81 189.672C609.048 189.137 609.365 188.681 609.761 188.304C610.178 187.927 610.644 187.64 611.16 187.441C611.695 187.223 612.25 187.114 612.826 187.114C613.182 187.114 613.539 187.154 613.896 187.233C614.253 187.312 614.591 187.441 614.908 187.62C615.245 187.778 615.552 187.987 615.83 188.244C616.128 188.482 616.375 188.76 616.574 189.077L614.848 190.297C614.729 190.099 614.591 189.92 614.432 189.762C614.293 189.603 614.134 189.464 613.956 189.345C613.797 189.226 613.619 189.137 613.42 189.077C613.242 188.998 613.044 188.958 612.826 188.958C612.488 188.958 612.181 189.018 611.903 189.137C611.626 189.256 611.378 189.434 611.16 189.672C610.961 189.891 610.803 190.148 610.684 190.446C610.584 190.743 610.535 191.061 610.535 191.398C610.535 192.112 610.813 192.756 611.368 193.331C611.923 193.887 612.915 194.769 614.343 195.979C615.771 197.169 616.841 198.26 617.555 199.251C618.269 200.243 618.626 201.353 618.626 202.583C618.626 203.416 618.468 204.199 618.15 204.933C617.853 205.647 617.436 206.282 616.901 206.837C616.366 207.372 615.741 207.789 615.027 208.086C614.313 208.384 613.559 208.533 612.766 208.533ZM626.432 208.235H624.35V189.375H619.59V187.412H631.192V189.375H626.432V208.235ZM644.125 208.235L642.072 201.601H635.2L633.178 208.235H630.917L637.64 187.412H639.633L646.356 208.235H644.125ZM638.116 192.052L635.736 199.816H641.537L639.157 192.052C639.097 191.874 639.038 191.675 638.978 191.457C638.919 191.239 638.859 191.031 638.8 190.833C638.76 190.634 638.721 190.466 638.681 190.327C638.661 190.188 638.651 190.109 638.651 190.089C638.651 190.109 638.621 190.238 638.562 190.476C638.502 190.694 638.453 190.862 638.413 190.981C638.393 191.1 638.354 191.269 638.294 191.487C638.235 191.685 638.175 191.874 638.116 192.052ZM654.358 208.235H652.365L645.642 187.412H647.873L652.99 204.07C653.029 204.249 653.069 204.427 653.109 204.606C653.168 204.765 653.208 204.913 653.228 205.052C653.267 205.171 653.297 205.29 653.317 205.409C653.357 205.528 653.376 205.597 653.376 205.617C653.376 205.597 653.386 205.538 653.406 205.439C653.426 205.34 653.446 205.221 653.466 205.082C653.505 204.923 653.545 204.765 653.585 204.606C653.624 204.427 653.674 204.249 653.733 204.07L658.82 187.412H661.081L654.358 208.235ZM674.767 206.153V208.235H664.355V187.412H666.438V206.153H674.767ZM689.328 208.235L687.275 201.601H680.403L678.381 208.235H676.12L682.843 187.412H684.836L691.559 208.235H689.328ZM683.319 192.052L680.939 199.816H686.74L684.36 192.052C684.3 191.874 684.241 191.675 684.181 191.457C684.122 191.239 684.062 191.031 684.003 190.833C683.963 190.634 683.924 190.466 683.884 190.327C683.864 190.188 683.854 190.109 683.854 190.089C683.854 190.109 683.824 190.238 683.765 190.476C683.705 190.694 683.656 190.862 683.616 190.981C683.596 191.1 683.557 191.269 683.497 191.487C683.438 191.685 683.378 191.874 683.319 192.052Z" fill="white"/>
<defs>
<linearGradient id="paint0_linear_10_296" x1="555" y1="330" x2="555" y2="0" gradientUnits="userSpaceOnUse">
<stop stop-color="#113F55"/>
<stop offset="1" stop-color="#19526C"/>
</linearGradient>
</defs>
</svg>
