<svg width="800" height="346" viewBox="0 0 800 346" fill="none" xmlns="http://www.w3.org/2000/svg">
<g clip-path="url(#clip0_12_537)">
<mask id="mask0_12_537" style="mask-type:alpha" maskUnits="userSpaceOnUse" x="0" y="38" width="800" height="308">
<rect y="38" width="800" height="308" rx="20" fill="#D9D9D9"/>
</mask>
<g mask="url(#mask0_12_537)">
<rect x="-38" y="-27" width="952" height="438" fill="#E6F3F9"/>
<path fill-rule="evenodd" clip-rule="evenodd" d="M305.687 314.168C285.561 335.933 292.495 347.659 309.248 348.533C339.71 349.976 321.963 324.793 310.819 335.578" fill="#F0D1BA"/>
<path fill-rule="evenodd" clip-rule="evenodd" d="M193.618 349.819L193.913 368.609C223.943 374.399 253.556 373.42 282.642 364.015V345.856C252.122 357.092 222.508 357.663 193.618 349.819Z" fill="#A4A4A4"/>
<path d="M294.708 214.43C294.708 214.43 373.039 228.904 305.069 315.394C287.951 337.16 293.849 348.885 308.098 349.759C334.008 351.202 318.913 326.019 309.435 336.804" stroke="#F0D1BA" stroke-width="4.61953" stroke-miterlimit="1.5" stroke-linecap="round" stroke-linejoin="round"/>
<path fill-rule="evenodd" clip-rule="evenodd" d="M271.843 201.968L251.481 197.009L242.05 221.891L220.62 202.552L198.416 216.086C198.416 216.086 193.858 216.583 189.019 217.11C186.546 217.379 184.09 216.473 182.384 214.66C180.679 212.849 179.923 210.343 180.341 207.89C182.942 194.186 179.963 185.626 172.199 166.94C170.293 167.67 168.227 168.069 166.068 168.069C156.593 168.069 148.901 160.376 148.901 150.901C148.901 141.428 156.593 133.734 166.068 133.734C168.227 133.734 170.293 134.134 172.199 134.864V124.048C172.199 100.361 191.43 81.1304 215.117 81.1304C252.626 81.1304 277.282 117.405 285.241 131.073C285.841 132.14 285.83 133.445 285.213 134.503C284.597 135.56 283.467 136.212 282.243 136.216C273.213 136.254 256.808 136.311 256.808 136.311C265.683 162.644 271.843 201.968 271.843 201.968Z" fill="#F0D1BA"/>
<path fill-rule="evenodd" clip-rule="evenodd" d="M210.086 155.311C221.028 178.016 248.972 187.542 241.406 154.045Z" fill="#0A3042"/>
<path fill-rule="evenodd" clip-rule="evenodd" d="M209.909 154.068L241.949 154.068L241.949 159.586L209.908 162.789L209.909 154.068Z" fill="#FEFFFE"/>
<path fill-rule="evenodd" clip-rule="evenodd" d="M218.571 169.853L243.173 167.556L236.429 175.527L229.072 175.527L218.571 169.853Z" fill="#FEFFFE"/>
<path d="M210.086 155.311C221.028 178.016 248.972 187.542 241.406 154.045" stroke="#0A3042" stroke-width="4.61953" stroke-miterlimit="1.5" stroke-linecap="round" stroke-linejoin="round"/>
<path fill-rule="evenodd" clip-rule="evenodd" d="M177.817 105.914C177.817 105.914 183.183 74.1415 211.727 71.683C234.262 69.7416 248.55 77.8955 248.55 77.8955C240.07 88.4009 226.776 92.9383 211.727 85.2998C211.727 85.2998 204.027 109.179 177.817 105.914Z" fill="#0A3042"/>
<path d="M182.674 469.95C182.674 469.95 200.747 255.764 177.019 155.762C175.113 156.492 173.047 156.89 170.888 156.89C161.413 156.89 153.72 149.198 153.72 139.723C153.72 130.249 161.413 122.556 170.888 122.556C173.047 122.556 175.113 122.956 177.019 123.685V112.87C177.019 89.1829 196.25 69.952 219.937 69.952C266.154 69.952 292.857 125.023 292.857 125.023L261.628 125.132C324.691 343.414 254.114 471.163 254.114 471.163" stroke="#0A3042" stroke-width="4.49099" stroke-miterlimit="1.5" stroke-linecap="round" stroke-linejoin="round"/>
<path fill-rule="evenodd" clip-rule="evenodd" d="M219.92 202.994L217.492 229.088L178.339 241.681V225.654" fill="#93ADBD"/>
<path d="M219.92 202.994L217.492 229.088L178.339 241.681V225.654" stroke="#0A3042" stroke-width="4.61953" stroke-miterlimit="1.5" stroke-linecap="round" stroke-linejoin="round"/>
<path fill-rule="evenodd" clip-rule="evenodd" d="M253.161 197.01L258.237 222.331H290.365L285.681 204.024" fill="#93ADBD"/>
<path d="M253.161 197.01L258.237 222.331H290.365L285.681 204.024" stroke="#0A3042" stroke-width="4.61953" stroke-miterlimit="1.5" stroke-linecap="round" stroke-linejoin="round"/>
<path d="M177.705 105.195C180.032 105.802 182.474 106.126 184.99 106.126C198.336 106.126 209.576 97.0321 212.846 84.7085C217.231 87.4038 222.389 88.9586 227.908 88.9586C236.949 88.9586 249.928 82.3333 257.666 66" stroke="#0A3042" stroke-width="4.61953" stroke-miterlimit="1.5" stroke-linecap="round" stroke-linejoin="round"/>
<path d="M178.339 225.654L220.754 201.507L244.384 224.264L251.471 197.008L285.683 203.857" stroke="#0A3042" stroke-width="4.61953" stroke-miterlimit="1.5" stroke-linecap="round" stroke-linejoin="round"/>
<path d="M192.095 350.086C227.006 354.342 259.771 354.751 286.122 343.673" stroke="#0A3042" stroke-width="4.61953" stroke-miterlimit="1.5" stroke-linecap="round" stroke-linejoin="round"/>
<path d="M251.372 279.263C252.726 279.263 253.824 278.165 253.824 276.811C253.824 275.456 252.726 274.358 251.372 274.358C250.017 274.358 248.919 275.456 248.919 276.811C248.919 278.165 250.017 279.263 251.372 279.263Z" fill="#0A3042"/>
<path d="M247.694 242.203C249.049 242.203 250.147 241.105 250.147 239.75C250.147 238.396 249.049 237.297 247.694 237.297C246.339 237.297 245.241 238.396 245.241 239.75C245.241 241.105 246.339 242.203 247.694 242.203Z" fill="#0A3042"/>
<path d="M250.145 262.165C251.499 262.165 252.598 261.067 252.598 259.713C252.598 258.358 251.499 257.26 250.145 257.26C248.79 257.26 247.692 258.358 247.692 259.713C247.692 261.067 248.79 262.165 250.145 262.165Z" fill="#0A3042"/>
<path d="M251.146 332.551C252.495 332.676 253.69 331.685 253.816 330.336C253.942 328.987 252.95 327.792 251.601 327.666C250.252 327.541 249.057 328.532 248.931 329.881C248.806 331.23 249.797 332.425 251.146 332.551Z" fill="#0A3042"/>
<path d="M252.368 296.66C253.717 296.786 254.912 295.794 255.038 294.445C255.164 293.097 254.172 291.901 252.823 291.776C251.474 291.65 250.279 292.642 250.154 293.99C250.028 295.339 251.019 296.534 252.368 296.66Z" fill="#0A3042"/>
<path d="M252.846 313.079C254.195 313.205 255.391 312.213 255.516 310.864C255.642 309.516 254.65 308.32 253.301 308.195C251.953 308.069 250.758 309.06 250.632 310.409C250.506 311.758 251.498 312.953 252.846 313.079Z" fill="#0A3042"/>
<path d="M298.263 214.43C298.263 214.43 369.359 227.677 301.39 314.168C284.272 335.933 290.17 347.659 304.419 348.533C330.329 349.976 315.234 324.793 305.755 335.578C314.326 329.761 316.914 314.102 304.909 319.779" stroke="#0A3042" stroke-width="4.61953" stroke-miterlimit="1.5" stroke-linecap="round" stroke-linejoin="round"/>
<path d="M202.102 152.43C218.217 156.513 231.484 157.015 248.955 151.516" stroke="#0A3042" stroke-width="4.61953" stroke-miterlimit="1.5" stroke-linecap="round" stroke-linejoin="round"/>
<path d="M202.099 117.26C202.099 117.26 204.893 103.981 215.977 115.573" stroke="#0A3042" stroke-width="4.61953" stroke-miterlimit="1.5" stroke-linecap="round" stroke-linejoin="round"/>
<path d="M228.634 113.787C228.634 113.787 231.428 100.508 242.513 112.1" stroke="#0A3042" stroke-width="4.61953" stroke-miterlimit="1.5" stroke-linecap="round" stroke-linejoin="round"/>
<path fill-rule="evenodd" clip-rule="evenodd" d="M120.314 261.958C109.682 262.114 142.676 224.062 110.238 221.77C76.4854 219.387 105.273 260.772 95.266 260.637" fill="#F0D1BA"/>
<path fill-rule="evenodd" clip-rule="evenodd" d="M93.4618 169.256C96.33 168.597 99.2602 168.151 102.245 167.937C140.574 165.222 119.025 207.602 103.951 188.373C95.2187 197.723 89.1113 180.792 98.8457 180.181" fill="#F0D1BA"/>
<path d="M173.416 252.47C150.591 257.311 134.579 260.216 118.348 260.449C110.375 260.566 135.117 232.033 110.792 230.314C85.482 228.527 107.069 259.56 99.565 259.459C0.988346 258.11 43.5884 168.229 103.637 164.062C146.615 161.083 122.528 208.637 105.589 187.014C95.8132 197.498 88.9332 178.473 99.8482 177.805" stroke="#0A3042" stroke-width="4.49148" stroke-miterlimit="1.5" stroke-linecap="round" stroke-linejoin="round"/>
<path d="M83.2738 215.622L90.3808 223.376" stroke="#0A3042" stroke-width="4.49099" stroke-miterlimit="1.5" stroke-linecap="round" stroke-linejoin="round"/>
<path d="M114.061 203.614L112.247 216.057" stroke="#0A3042" stroke-width="4.49099" stroke-miterlimit="1.5" stroke-linecap="round" stroke-linejoin="round"/>
<path d="M138.97 217.503L128.898 225.111" stroke="#0A3042" stroke-width="4.49099" stroke-miterlimit="1.5" stroke-linecap="round" stroke-linejoin="round"/>
</g>
<g filter="url(#filter0_f_12_537)">
<path fill-rule="evenodd" clip-rule="evenodd" d="M462.325 63.9297V249.1L771.324 283.68L771.14 37.8584L462.325 63.9297Z" fill="#759DB0"/>
</g>
<path fill-rule="evenodd" clip-rule="evenodd" d="M748.477 20.7642L762.806 27.7784L765.07 266.586H748.477" fill="#93ADBD"/>
<path d="M748.477 20.7642L762.806 27.7784L765.07 266.586H748.477" stroke="#0A3042" stroke-width="4.69406" stroke-miterlimit="1.5" stroke-linecap="round" stroke-linejoin="round"/>
<path fill-rule="evenodd" clip-rule="evenodd" d="M439.479 46.8355V232.006L748.479 266.586L748.295 20.7642L439.479 46.8355Z" fill="#FEFFFE" stroke="#0A3042" stroke-width="4.69406" stroke-miterlimit="1.5" stroke-linecap="round" stroke-linejoin="round"/>
<path d="M532.768 124.108L613.563 119.842" stroke="#0A3042" stroke-width="4.69406" stroke-miterlimit="1.5" stroke-linecap="round" stroke-linejoin="round"/>
<path d="M391 7.0494L424.761 36.7118" stroke="#0A3042" stroke-width="4.69406" stroke-miterlimit="1.5" stroke-linecap="round" stroke-linejoin="round"/>
<path d="M430.317 10.1569L438.394 30.3848" stroke="#0A3042" stroke-width="4.69406" stroke-miterlimit="1.5" stroke-linecap="round" stroke-linejoin="round"/>
<path d="M401.406 59.9162L422.43 54.2224" stroke="#0A3042" stroke-width="4.69406" stroke-miterlimit="1.5" stroke-linecap="round" stroke-linejoin="round"/>
<path d="M794.044 309.074L772.363 276.911" stroke="#0A3042" stroke-width="4.69406" stroke-miterlimit="1.5" stroke-linecap="round" stroke-linejoin="round"/>
<path d="M761.903 297.855L759.595 279.199" stroke="#0A3042" stroke-width="4.69406" stroke-miterlimit="1.5" stroke-linecap="round" stroke-linejoin="round"/>
<path d="M796.946 262.657L778.148 262.801" stroke="#0A3042" stroke-width="4.69406" stroke-miterlimit="1.5" stroke-linecap="round" stroke-linejoin="round"/>
<path d="M530.455 139.83H611.25" stroke="#0A3042" stroke-width="4.69406" stroke-miterlimit="1.5" stroke-linecap="round" stroke-linejoin="round"/>
<path d="M530.455 157.664L609.071 158.555" stroke="#0A3042" stroke-width="4.69406" stroke-miterlimit="1.5" stroke-linecap="round" stroke-linejoin="round"/>
<path d="M516.305 214.762L626.574 225.488" stroke="#0A3042" stroke-width="4.69406" stroke-miterlimit="1.5" stroke-linecap="round" stroke-linejoin="round"/>
<path d="M516.305 224.277L626.574 236.206" stroke="#0A3042" stroke-width="4.69406" stroke-miterlimit="1.5" stroke-linecap="round" stroke-linejoin="round"/>
<path fill-rule="evenodd" clip-rule="evenodd" d="M518.527 97.4978L476.849 103.489L476.941 160.655L517.792 162.632L518.527 97.4978Z" fill="#93ADBD" stroke="#274E68" stroke-width="4.69406" stroke-miterlimit="1.5" stroke-linecap="round" stroke-linejoin="round"/>
<path fill-rule="evenodd" clip-rule="evenodd" d="M509.151 87.2747L467.472 93.2662L467.564 150.432L508.415 152.409L509.151 87.2747Z" fill="#FEFFFE" stroke="#0A3042" stroke-width="4.69406" stroke-miterlimit="1.5" stroke-linecap="round" stroke-linejoin="round"/>
<path d="M539.929 100.768C540.424 100.586 540.646 100.163 540.569 99.5336C540.469 98.7246 540.1 97.9488 539.431 97.2097C539.001 93.2172 539.009 89.3229 539.425 85.5306C539.436 85.3771 539.448 85.2236 539.429 85.0738C539.319 84.1749 538.612 83.8664 537.338 84.1446C536.005 84.4303 535.329 85.1216 535.346 86.245C535.378 90.4689 535.543 94.2811 535.839 97.6818C534.636 98.2859 533.369 98.8675 532.065 99.3929C531.65 95.5202 531.658 91.6259 532.059 87.7137C532.07 87.5602 532.082 87.4067 532.063 87.2569C531.957 86.3879 531.249 86.0795 529.976 86.3577C528.642 86.6434 527.967 87.3347 527.983 88.4581C528.072 94.3784 528.365 99.4827 528.899 103.827C529.106 105.505 529.346 107.21 529.649 108.936C529.845 110.038 530.515 110.533 531.653 110.393C532.283 110.316 532.774 110.104 533.19 109.779C533.662 109.416 533.847 108.937 533.769 108.308C533.714 107.859 533.57 107.177 533.302 106.237L532.73 104.056C533.795 103.317 534.99 102.653 536.283 102.038C536.457 103.446 536.708 104.997 537.012 106.723C537.212 107.855 537.881 108.35 538.99 108.214C540.218 108.063 541.279 107.294 541.132 106.095C541.055 105.466 540.854 104.578 540.534 103.462C540.196 102.195 539.996 101.307 539.929 100.768ZM555.426 84.9321C556.306 84.6717 556.693 84.1071 556.59 83.2681C556.55 82.9385 556.449 82.6163 556.289 82.3014C555.755 81.1807 555.056 80.6888 554.217 80.7919C554.067 80.8104 553.891 80.8624 553.745 80.9108C550.286 82.2181 547.405 83.0286 545.098 83.3123C544.049 83.4412 543.047 84.4464 543.049 85.45C543.094 91.2541 543.394 96.4184 543.947 100.913C544.138 102.471 544.404 104.142 544.719 105.958C544.823 106.554 545.263 107.169 546.037 107.773C546.811 108.378 547.481 108.63 548.08 108.556C548.35 108.523 548.552 108.437 548.743 108.262C551.231 105.979 554.084 104.199 557.243 102.928C557.704 102.719 557.903 102.36 557.837 101.821C557.752 101.132 557.364 100.45 556.639 99.7478C555.94 99.0125 555.263 98.7003 554.604 98.7814C554.394 98.8071 554.192 98.8929 554.053 99.0012C552.272 100.346 550.337 101.678 548.211 102.944C547.97 101.969 547.762 101.022 547.61 100.037C550.011 98.2815 552.481 97.0958 555.024 96.5093C555.586 96.3794 555.838 95.953 555.75 95.2339C555.698 94.8144 555.519 94.3497 555.243 93.8361C554.646 92.6929 553.973 92.1673 553.254 92.2557C553.104 92.2741 552.958 92.3225 552.846 92.3971C551.406 93.3042 549.453 94.2438 546.984 95.1862C546.775 92.7481 546.75 90.3178 546.886 87.9591C547.86 87.7177 549.003 87.3642 550.311 86.8689C551.446 86.4555 552.578 86.0122 553.71 85.5689C554.643 85.2413 555.224 85.0178 555.426 84.9321ZM566.6 106.066C567.736 98.2315 569.316 90.5547 571.339 83.0061C571.414 82.6318 571.434 82.2948 571.397 81.9952C571.29 81.1262 570.7 80.5297 569.659 80.2317C569.218 80.1035 568.847 80.0579 568.547 80.0947C567.678 80.2015 567.202 80.7772 567.091 81.8554C566.774 84.9665 566.394 87.8115 565.898 90.4579C564.221 87.9569 562.713 85.5873 561.4 83.3155C560.964 82.4871 560.343 82.1376 559.534 82.237C559.204 82.2776 558.856 82.4117 558.514 82.6057C557.69 83.0721 557.337 83.663 557.421 84.3522C557.465 84.7117 557.633 85.0865 557.891 85.4503C560.565 88.8931 562.929 92.0396 564.979 94.8596C564.121 98.5237 563.224 101.858 562.345 104.856C562.258 105.14 562.235 105.447 562.272 105.747C562.368 106.526 562.925 107.096 563.969 107.424C564.444 107.579 564.848 107.651 565.208 107.606C565.987 107.511 566.441 106.999 566.6 106.066ZM579.524 95.6567C578.953 90.769 579.345 85.7933 580.7 80.7297C580.742 80.5725 580.753 80.419 580.731 80.2393C580.646 79.5501 579.969 79.2379 578.7 79.3028C577.277 79.3561 576.545 79.8414 576.51 80.7887C576.419 83.2636 576.271 85.7759 576.071 88.3554L575.386 95.8917C575.367 95.9853 575.385 96.1351 575.404 96.285C575.507 97.1239 576.191 97.496 577.484 97.3676C578.959 97.247 579.649 96.6755 579.524 95.6567ZM580.02 102.166C580.336 101.519 580.449 100.957 580.387 100.448C580.28 99.5788 579.648 99.1394 578.517 99.0959C578.244 99.0991 578.03 99.0949 577.821 99.1207C576.532 99.2791 575.505 100.075 574.794 101.47C574.448 102.121 574.305 102.686 574.364 103.165C574.471 104.034 575.103 104.474 576.233 104.517C576.507 104.514 576.72 104.518 576.9 104.496C578.278 104.327 579.31 103.561 580.02 102.166Z" fill="#0A3042"/>
<path d="M460.99 214.211C461.159 211.696 461.623 209.271 462.364 206.936C462.387 206.849 462.411 206.762 462.417 206.675C462.451 206.164 462.08 205.91 461.301 205.928C460.487 205.944 460.024 206.266 459.91 206.912C459.49 209.198 459.186 211.351 458.964 213.333C458.293 210.973 457.902 208.649 457.792 206.345C457.765 205.955 457.585 205.748 457.233 205.724C456.864 205.699 456.392 205.88 455.82 206.247C455.247 206.615 454.941 206.966 454.864 207.314C454.245 210.735 453.849 213.73 453.674 216.315C453.61 217.265 453.58 218.235 453.565 219.241C453.556 219.912 453.885 220.27 454.536 220.313C454.905 220.338 455.228 220.272 455.502 220.131C455.814 219.958 455.973 219.704 455.997 219.334C456.003 219.246 456.008 219.176 455.994 219.122C455.864 217.647 455.842 216.143 455.942 214.648C456.015 213.575 456.14 212.506 456.318 211.44L457.252 215.143C457.894 217.678 458.283 219.241 458.42 219.833C458.518 220.211 458.698 220.417 458.997 220.438C459.261 220.455 459.587 220.336 459.976 220.08C460.734 219.583 461.082 219.129 461.057 218.721C460.913 217.192 460.89 215.689 460.99 214.211ZM471.289 208.298C471.822 208.245 472.106 207.964 472.14 207.471C472.153 207.278 472.13 207.082 472.073 206.884C471.891 206.183 471.544 205.823 471.051 205.79C470.963 205.784 470.857 205.795 470.768 205.806C468.64 206.175 466.899 206.323 465.544 206.232C464.929 206.19 464.244 206.656 464.134 207.232C463.521 210.565 463.124 213.56 462.946 216.198C462.885 217.113 462.853 218.1 462.834 219.177C462.828 219.53 463.013 219.931 463.39 220.363C463.767 220.795 464.124 221.013 464.475 221.037C464.634 221.047 464.759 221.021 464.888 220.941C466.566 219.906 468.398 219.199 470.35 218.818C470.637 218.749 470.791 218.565 470.812 218.248C470.839 217.844 470.692 217.41 470.353 216.928C470.034 216.429 469.68 216.175 469.293 216.149C469.17 216.141 469.044 216.168 468.953 216.215C467.783 216.79 466.527 217.341 465.169 217.832C465.137 217.247 465.122 216.681 465.144 216.099C466.714 215.357 468.261 214.949 469.784 214.893C470.12 214.88 470.312 214.663 470.34 214.241C470.357 213.995 470.305 213.709 470.204 213.384C469.987 212.662 469.659 212.287 469.237 212.258C469.149 212.252 469.06 212.264 468.987 212.295C468.062 212.656 466.839 212.98 465.319 213.249C465.467 211.827 465.721 210.431 466.058 209.093C466.643 209.062 467.338 208.985 468.142 208.845C468.839 208.733 469.537 208.603 470.234 208.474C470.806 208.389 471.163 208.324 471.289 208.298ZM482.501 221.492C483.533 216.668 484.688 212.381 485.983 208.635C486.048 208.462 486.075 208.323 486.081 208.235C486.12 207.654 485.791 207.297 485.094 207.144C484.937 207.115 484.832 207.108 484.779 207.105C484.093 207.058 483.719 207.369 483.621 208.034C483.259 210.253 482.644 212.827 481.776 215.737C481.024 211.428 480.585 208.765 480.425 207.73C480.362 207.355 480.005 207.154 479.354 207.11C479.038 207.089 478.77 207.124 478.533 207.231C478.206 207.368 478.033 207.569 478.031 207.869C477.912 210.423 477.338 213.158 476.294 216.074C475.825 212.279 475.329 209.418 474.825 207.458C474.684 206.936 474.367 206.65 473.892 206.618C473.752 206.608 473.573 206.632 473.356 206.705C472.797 206.88 472.494 207.177 472.466 207.599C472.455 207.758 472.479 207.918 472.539 208.082C473.206 209.982 473.699 212.1 474.036 214.437C474.375 216.757 474.51 218.939 474.424 221.001C474.41 221.477 474.779 221.767 475.547 221.907C476.351 222.032 476.808 221.815 476.915 221.275C477.41 218.905 478.156 216.235 479.152 213.245C479.8 215.957 480.088 218.503 480.048 220.921C480.025 221.007 480 221.112 479.994 221.2C479.972 221.534 480.131 221.792 480.452 222.008C480.705 222.184 481 222.275 481.369 222.3C482.002 222.342 482.374 222.067 482.501 221.492ZM488.744 214.846C488.917 214.645 489.05 214.496 489.109 214.411L489.586 213.896C490.94 212.414 492.238 211.512 493.513 211.21C493.544 211.795 493.51 212.552 493.415 213.447C493.351 214.132 493.61 214.485 494.19 214.524C494.735 214.561 495.236 214.206 495.396 213.669C495.557 213.114 495.648 212.555 495.686 211.992C495.742 211.166 495.663 210.241 495.449 209.22C495.426 209.042 495.365 208.896 495.25 208.765C494.987 208.464 494.575 208.295 494.012 208.257C493.537 208.225 493.213 208.309 493.04 208.527C490.904 209.284 489.105 210.806 487.642 213.111C486.733 214.534 486.253 215.632 486.202 216.388C486.175 216.793 486.24 217.133 486.416 217.41C486.623 217.742 486.911 217.92 487.281 217.945C487.404 217.954 487.528 217.944 487.671 217.919C488.476 217.778 489.475 217.634 490.632 217.5C491.185 217.431 491.628 217.408 491.997 217.433C492.771 217.485 493.393 217.704 493.845 218.07C493.979 218.185 494.041 218.313 494.032 218.436C493.99 219.069 492.608 219.647 489.886 220.188C489.342 220.134 488.895 220.21 488.528 220.415C488.07 220.649 487.834 221.004 487.8 221.514C487.752 222.218 488.223 222.832 488.927 222.88C489.085 222.891 489.227 222.882 489.353 222.856C491.041 222.704 492.41 222.32 493.475 221.72C495.403 220.649 496.425 219.375 496.526 217.88C496.589 216.947 496.336 216.241 495.768 215.761C494.984 215.072 494.035 214.726 492.904 214.738L490.739 214.874C489.658 214.925 489.004 214.916 488.744 214.846Z" fill="#0A3042"/>
<path d="M681.182 201.473L719.307 202.514" stroke="#0A3042" stroke-width="4.69406" stroke-miterlimit="1.5" stroke-linecap="round" stroke-linejoin="round"/>
<path d="M668.386 205.56C671.077 205.56 673.258 203.379 673.258 200.689C673.258 197.998 671.077 195.817 668.386 195.817C665.696 195.817 663.515 197.998 663.515 200.689C663.515 203.379 665.696 205.56 668.386 205.56Z" fill="#93ADBD"/>
<path d="M668.386 219.371C671.077 219.371 673.258 217.19 673.258 214.5C673.258 211.81 671.077 209.629 668.386 209.629C665.696 209.629 663.515 211.81 663.515 214.5C663.515 217.19 665.696 219.371 668.386 219.371Z" fill="#93ADBD"/>
<path d="M668.386 234.646C671.077 234.646 673.258 232.465 673.258 229.775C673.258 227.085 671.077 224.904 668.386 224.904C665.696 224.904 663.515 227.085 663.515 229.775C663.515 232.465 665.696 234.646 668.386 234.646Z" fill="#93ADBD"/>
<path d="M680.345 215.274L717.71 217.463" stroke="#0A3042" stroke-width="4.69406" stroke-miterlimit="1.5" stroke-linecap="round" stroke-linejoin="round"/>
<path d="M680.071 230.429L716.55 233.171" stroke="#0A3042" stroke-width="4.69406" stroke-miterlimit="1.5" stroke-linecap="round" stroke-linejoin="round"/>
<path d="M670.199 171.668C670.688 171.675 670.926 171.386 670.935 170.78C670.942 170.37 670.811 169.938 670.564 169.505C670.298 168.993 669.969 168.734 669.559 168.728C669.481 168.727 669.422 168.726 669.364 168.745C667.618 169.207 665.288 169.524 662.414 169.677C661.984 169.69 661.765 169.96 661.758 170.449C661.752 170.859 661.881 171.349 662.147 171.881C662.47 172.491 662.817 172.789 663.227 172.795C663.305 172.797 663.403 172.779 663.521 172.741C663.855 172.629 664.326 172.499 664.895 172.351C664.555 175.472 664.358 178.244 664.321 180.685C664.305 181.76 664.309 182.854 664.351 183.968C664.379 184.711 664.764 185.088 665.487 185.099C666.288 185.11 667.036 184.711 667.048 183.93C667.049 183.832 667.05 183.754 667.031 183.695C666.802 182.051 666.69 180.369 666.716 178.65C666.75 176.345 667.018 174.083 667.5 171.863C668.499 171.721 669.398 171.656 670.199 171.668ZM682.971 180.962C684.464 179.089 685.43 177.15 685.851 175.144C685.916 174.734 685.961 174.344 685.966 173.973C685.989 172.43 685.364 171.112 684.11 170.019C683.088 169.144 682.02 168.698 680.906 168.682C679.422 168.66 677.888 169.301 676.306 170.606C674.981 171.7 673.827 173.07 672.825 174.755C671.723 176.595 671.171 178.286 671.148 179.829C671.124 181.412 671.71 182.749 672.924 183.861C673.869 184.735 674.917 185.18 676.07 185.197C677.3 185.215 678.577 184.765 679.939 183.848C681.024 183.102 682.035 182.14 682.971 180.962ZM680.641 172.058C682.341 172.083 683.495 173.253 683.47 174.991C683.467 175.167 683.445 175.362 683.402 175.615C683.165 177.058 682.482 178.357 681.351 179.512C680.22 180.667 678.94 181.391 677.489 181.701C677.097 181.793 676.725 181.827 676.393 181.822C674.655 181.796 673.461 180.645 673.486 178.907C673.49 178.653 673.514 178.399 673.577 178.107C673.873 176.529 674.734 175.135 676.16 173.886C677.585 172.637 679.079 172.034 680.641 172.058ZM689.962 184.661C692.142 183.873 693.98 182.435 695.477 180.347C696.993 178.259 697.768 176.063 697.802 173.758C697.827 172.098 697.319 170.781 696.279 169.77C695.643 169.154 694.827 168.849 693.792 168.834C692.854 168.82 691.737 169.057 690.441 169.527C690.304 169.485 690.168 169.464 690.012 169.462C689.308 169.451 688.58 169.831 688.395 170.454L687.804 170.796C687.39 171.005 687.189 171.412 687.18 172.038C687.175 172.37 687.229 172.683 687.361 172.978C687.532 173.313 687.743 173.531 688.016 173.613C687.764 176.13 687.631 178.453 687.599 180.621C687.583 181.715 687.586 182.828 687.628 183.962C687.656 184.685 688.061 185.063 688.842 185.074C689.291 185.081 689.664 184.95 689.962 184.661ZM694.521 172.381C695.196 172.977 695.516 173.763 695.501 174.76C695.48 176.205 694.871 177.7 693.696 179.246C692.779 180.463 691.575 181.266 690.085 181.615C690.002 180.637 689.977 179.66 689.992 178.663C690.022 176.671 690.228 174.642 690.61 172.596C691.652 172.143 692.535 171.922 693.238 171.932C693.785 171.94 694.212 172.083 694.521 172.381ZM707.835 185.141C708.444 184.896 708.762 184.53 708.769 184.042C708.772 183.885 708.735 183.709 708.66 183.532C707.808 181.644 707.138 179.446 706.628 176.918C706.136 174.546 705.858 172.237 705.793 170.009C705.834 169.872 705.855 169.755 705.857 169.638C705.866 169.072 705.499 168.754 704.739 168.645C703.822 168.534 703.27 168.877 703.102 169.676C702.031 174.661 700.669 179.564 699.035 184.366C698.973 184.56 698.932 184.716 698.93 184.853C698.921 185.458 699.307 185.777 700.087 185.847C701.043 185.939 701.576 185.556 701.706 184.718C701.729 184.504 701.75 184.367 701.77 184.348L701.813 184.114C703.74 183.264 704.997 182.794 705.586 182.666C705.863 183.705 706.031 184.235 706.05 184.294C706.333 184.963 706.68 185.3 707.129 185.307C707.344 185.31 707.579 185.255 707.835 185.141ZM703.995 175.316C704.302 177.02 704.611 178.529 704.904 179.862C704.138 180.163 703.333 180.425 702.528 180.667C702.945 178.934 703.44 177.144 703.995 175.316ZM712.996 185.706C714.417 180.785 716.11 176.003 718.074 171.344C718.156 171.11 718.198 170.896 718.201 170.701C718.209 170.134 717.884 169.7 717.243 169.417C716.971 169.295 716.738 169.233 716.542 169.23C715.976 169.222 715.619 169.549 715.453 170.23C714.974 172.196 714.479 173.986 713.927 175.639C713.074 173.887 712.317 172.235 711.676 170.662C711.469 170.093 711.102 169.814 710.575 169.806C710.36 169.803 710.125 169.858 709.889 169.952C709.319 170.178 709.04 170.526 709.034 170.975C709.03 171.209 709.105 171.464 709.237 171.72C710.647 174.164 711.884 176.39 712.948 178.379C712.075 180.652 711.204 182.71 710.375 184.554C710.295 184.729 710.253 184.923 710.25 185.119C710.242 185.626 710.549 186.041 711.189 186.344C711.48 186.485 711.733 186.567 711.967 186.57C712.475 186.578 712.811 186.29 712.996 185.706Z" fill="#0A3042"/>
<path d="M679.406 137.467C679.924 137.54 680.228 137.24 680.296 136.584C680.342 136.141 680.268 135.724 680.098 135.297C679.876 134.806 679.572 134.541 679.186 134.501C678.588 134.44 677.691 134.444 676.515 134.518C675.241 134.581 674.342 134.605 673.82 134.57C674.326 133.629 675.085 132.694 676.115 131.787C677.552 130.513 678.543 129.602 679.091 129.015C680.318 127.7 681.035 126.605 681.264 125.712C681.508 124.666 680.784 123.753 679.109 122.995C678.737 122.82 678.299 122.717 677.798 122.665C676.294 122.509 674.364 122.894 672.005 123.839C671.598 124.012 671.363 124.397 671.297 125.033C671.256 125.438 671.297 125.793 671.44 126.1C671.593 126.506 671.863 126.729 672.229 126.766C672.441 126.788 672.661 126.733 672.909 126.603C674.716 125.893 676.151 125.593 677.173 125.699C677.925 125.776 678.296 125.951 678.268 126.221C678.254 126.356 678.138 126.539 677.919 126.77C677.325 127.43 676.528 128.166 675.524 129.017C674.176 130.183 673.247 131.062 672.699 131.648C671.623 132.823 671.023 133.911 670.863 134.888C670.792 135.388 670.854 135.92 671.047 136.505C671.267 137.21 671.616 137.597 672.06 137.643C672.137 137.651 672.216 137.64 672.315 137.63C674.64 137.189 677.003 137.141 679.406 137.467ZM688.177 138.841C689.393 138.577 690.324 138.244 690.971 137.824C691.785 137.304 692.391 136.529 692.752 135.494C692.89 135.099 692.99 134.7 693.028 134.334C693.181 132.849 692.533 131.769 691.063 131.091C691.955 130.189 692.447 129.207 692.556 128.146C692.656 127.182 692.418 126.281 691.842 125.441C691.084 124.291 690.096 123.663 688.92 123.541C687.84 123.43 686.755 123.746 685.644 124.509C684.3 125.441 683.585 126.323 683.499 127.152C683.446 127.672 683.714 128.09 684.305 128.404C684.508 128.523 684.716 128.583 684.889 128.601C685.448 128.659 685.851 128.35 686.113 127.695C686.454 127.223 686.863 126.856 687.379 126.578C687.937 126.266 688.478 126.127 689.019 126.163C689.986 126.244 690.436 126.602 690.37 127.238C690.35 127.431 690.288 127.658 690.163 127.918C689.885 128.533 689.442 129.052 688.794 129.472C688.168 129.875 687.527 130.043 686.871 129.975C686.737 129.961 686.604 129.928 686.471 129.895C686.066 129.853 685.735 130.033 685.439 130.451C685.208 130.797 685.072 131.173 685.028 131.597C684.934 132.503 685.235 132.983 685.91 133.053C686.045 133.067 686.223 133.046 686.422 133.008C686.717 132.98 687.068 132.977 687.454 133.017C688.167 133.091 688.774 133.251 689.254 133.515C689.916 133.895 690.234 134.396 690.228 135.019C690.224 135.623 689.849 136.052 689.138 136.329C688.568 136.562 687.957 136.636 687.318 136.589C686.719 136.547 686.133 136.369 685.595 136.099C685.133 135.857 684.833 135.553 684.657 135.184C684.482 134.62 684.41 133.989 683.793 133.925C683.388 133.883 682.962 134.054 682.511 134.455C682.06 134.857 681.823 135.261 681.779 135.685C681.764 135.84 681.771 135.957 681.799 136.058C682.04 136.94 682.591 137.64 683.475 138.141C684.193 138.546 685.062 138.811 686.084 138.917C686.836 138.995 687.54 138.97 688.177 138.841ZM701.342 127.768C701.689 127.239 701.891 126.792 701.931 126.406C701.993 125.809 701.74 125.237 701.169 124.729C700.652 124.267 700.095 123.995 699.459 123.929C698.572 123.837 697.728 124.081 696.949 124.644C696.019 125.347 695.509 126.132 695.417 127.019C695.375 127.424 695.453 127.803 695.648 128.174C696.093 128.96 696.711 129.394 697.54 129.48C697.907 129.518 698.279 129.498 698.659 129.401C699.918 129.102 700.813 128.551 701.342 127.768ZM699.218 126.262C699.642 126.306 699.844 126.424 699.826 126.598C699.812 126.733 699.682 126.856 699.452 127.008C698.975 127.29 698.496 127.396 697.976 127.342C697.802 127.324 697.65 127.289 697.521 127.217C697.353 127.141 697.28 127.095 697.284 127.056C697.313 126.962 697.402 126.854 697.509 126.768C697.979 126.368 698.543 126.192 699.218 126.262Z" fill="#0A3042"/>
<path d="M692.291 93.1092C698.237 93.1092 703.057 87.3093 703.057 80.1549C703.057 73.0004 698.237 67.2006 692.291 67.2006C686.345 67.2006 681.525 73.0004 681.525 80.1549C681.525 87.3093 686.345 93.1092 692.291 93.1092Z" fill="#93ADBD" stroke="#0A3042" stroke-width="4.69406" stroke-miterlimit="1.5" stroke-linecap="round" stroke-linejoin="round"/>
<path d="M670.663 56.3914L680.204 64.0932" stroke="#0A3042" stroke-width="4.69406" stroke-miterlimit="1.5" stroke-linecap="round" stroke-linejoin="round"/>
<path d="M708.426 96.1262L715.164 102.374" stroke="#0A3042" stroke-width="4.69406" stroke-miterlimit="1.5" stroke-linecap="round" stroke-linejoin="round"/>
<path d="M661.874 79.9956H670.485" stroke="#0A3042" stroke-width="4.69406" stroke-miterlimit="1.5" stroke-linecap="round" stroke-linejoin="round"/>
<path d="M667.988 102.374L675.428 96.1262" stroke="#0A3042" stroke-width="4.69406" stroke-miterlimit="1.5" stroke-linecap="round" stroke-linejoin="round"/>
<path d="M693.696 112.05L692.658 102.39" stroke="#0A3042" stroke-width="4.69406" stroke-miterlimit="1.5" stroke-linecap="round" stroke-linejoin="round"/>
<path d="M716.835 56.5212L707.091 63.9654" stroke="#0A3042" stroke-width="4.69406" stroke-miterlimit="1.5" stroke-linecap="round" stroke-linejoin="round"/>
<path d="M720.577 79.1652H711.966" stroke="#0A3042" stroke-width="4.69406" stroke-miterlimit="1.5" stroke-linecap="round" stroke-linejoin="round"/>
<path d="M694.702 46.9547L693.728 56.6215" stroke="#0A3042" stroke-width="4.69406" stroke-miterlimit="1.5" stroke-linecap="round" stroke-linejoin="round"/>
<path d="M642.88 43.0206V243.046" stroke="#E8E8E8" stroke-width="4.69406" stroke-miterlimit="1.5" stroke-linecap="round" stroke-linejoin="round"/>
<path d="M652.393 150.823L736.176 150.895" stroke="#E8E8E8" stroke-width="4.69406" stroke-miterlimit="1.5" stroke-linecap="round" stroke-linejoin="round"/>
<path d="M452.447 196.104L626.298 209.704" stroke="#E8E8E8" stroke-width="4.69406" stroke-miterlimit="1.5" stroke-linecap="round" stroke-linejoin="round"/>
</g>
<defs>
<filter id="filter0_f_12_537" x="418.905" y="-5.56166" width="395.839" height="332.662" filterUnits="userSpaceOnUse" color-interpolation-filters="sRGB">
<feFlood flood-opacity="0" result="BackgroundImageFix"/>
<feBlend mode="normal" in="SourceGraphic" in2="BackgroundImageFix" result="shape"/>
<feGaussianBlur stdDeviation="21.71" result="effect1_foregroundBlur_12_537"/>
</filter>
<clipPath id="clip0_12_537">
<rect width="800" height="346" fill="white"/>
</clipPath>
</defs>
</svg>
